<svg width="33" height="33" viewBox="0 0 33 33" fill="none" xmlns="http://www.w3.org/2000/svg">
<path d="M17.7349 0.630981H19.7943V3.98031C21.391 3.98885 22.9897 3.98458 24.5864 3.98031C26.8772 3.97178 29.1659 3.96325 31.4546 3.99738C31.6451 3.97273 31.8386 3.993 32.0202 4.05665C32.2019 4.1203 32.367 4.22564 32.5027 4.36461C32.6385 4.50357 32.7414 4.67249 32.8036 4.85843C32.8658 5.04437 32.8856 5.2424 32.8615 5.43738C32.8928 9.05338 32.8886 12.6715 32.8824 16.2896C32.8782 19.6262 32.874 22.9606 32.897 26.2971C32.8907 26.462 32.8879 26.627 32.8886 26.792C32.8845 27.4 32.8803 28.0272 32.5489 28.5478C32.1007 28.8806 31.54 28.8955 31.0022 28.9104C30.9035 28.913 30.8049 28.9166 30.7062 28.9211C27.8819 28.9062 25.0575 28.9083 22.2331 28.9083H19.7943V32.631H17.5348C11.9923 31.5963 6.44153 30.6512 0.896973 29.655V12.2918V3.61765C6.50614 2.62351 12.1174 1.61231 17.7328 0.633114L17.7349 0.630981ZM19.7943 5.09605V8.80591C20.3884 8.67578 20.9824 8.54991 21.5807 8.43045C21.6182 9.62938 21.6161 10.8304 21.614 12.0315V13.2816H22.5833C23.8548 13.2816 25.1263 13.2816 26.3978 13.2902C26.2769 14.8966 25.5494 16.5072 24.157 17.352C22.8709 18.2374 21.2305 18.248 19.7922 17.7915L19.7985 19.9803H28.5197V21.4672H19.7943V23.3296H28.5197V24.8166H19.7943V27.7947H31.7922V5.09605H19.7943ZM27.1273 12.5264C26.9939 9.94725 24.8699 7.77125 22.3436 7.65178C22.3373 8.88058 22.3394 10.1094 22.3394 11.3403V12.5371H23.3983C24.6427 12.5392 25.885 12.5414 27.1294 12.5264H27.1273ZM6.72918 10.4614C6.6854 14.4358 6.69166 18.4123 6.72501 22.3867C7.44622 22.4464 8.16743 22.5083 8.88864 22.5744C8.88447 21.1195 8.88864 19.6646 8.8928 18.2096L9.03663 18.2139C9.89124 18.2438 10.7792 18.2758 11.5588 17.8662C13.8829 16.7014 14.2977 13.1216 12.7302 11.176C11.5692 10.1008 10.0246 10.2416 8.51969 10.3782C7.92469 10.4476 7.32582 10.4761 6.72709 10.4635L6.72918 10.4614ZM9.10958 12.4624L8.88864 12.4752C8.86448 13.7229 8.88394 14.9709 8.947 16.2171C9.67029 16.1296 10.6083 16.2043 11.0231 15.4363C11.367 14.6854 11.3899 13.7254 10.9751 12.9958C10.5395 12.3771 9.78077 12.4219 9.10958 12.4624Z" fill="url(#paint0_linear_2125_55)"/>
<defs>
<linearGradient id="paint0_linear_2125_55" x1="16.897" y1="0.630981" x2="16.897" y2="32.631" gradientUnits="userSpaceOnUse">
<stop stop-color="#EB552D"/>
<stop offset="1" stop-color="#CF2F09"/>
</linearGradient>
</defs>
</svg>
