<svg width="32" height="32" viewBox="0 0 32 32" fill="none" xmlns="http://www.w3.org/2000/svg">
<g clip-path="url(#clip0_2286_138)">
<path d="M24.8 21.52C22.64 21.36 20.56 20.56 18.88 19.12C15.6 19.84 12.48 20.88 9.36 22.16C6.88 26.56 4.56 28.8 2.56 28.8C2.16 28.8 1.68 28.72 1.36 28.48C0.48 28.08 0 27.2 0 26.32C0 25.6 0.16 23.6 7.76 20.32C9.52 17.12 10.88 13.84 12 10.4C11.04 8.47998 8.96 3.75998 10.4 1.35998C10.88 0.479981 11.84 -1.92475e-05 12.88 0.0799807C13.68 0.0799807 14.48 0.479981 14.96 1.11998C16 2.55998 15.92 5.59998 14.56 10.08C15.84 12.48 17.52 14.64 19.52 16.48C21.2 16.16 22.88 15.92 24.56 15.92C28.32 16 28.88 17.76 28.8 18.8C28.8 21.52 26.16 21.52 24.8 21.52ZM2.4 26.48L2.64 26.4C3.76 26 4.64 25.2 5.28 24.16C4.08 24.64 3.12 25.44 2.4 26.48ZM13.04 2.47998H12.8C12.72 2.47998 12.56 2.47998 12.48 2.55998C12.16 3.91998 12.4 5.35998 12.96 6.63998C13.44 5.27998 13.44 3.83998 13.04 2.47998ZM13.6 14.08L13.52 14.24L13.44 14.16C12.72 16 11.92 17.84 11.04 19.6L11.2 19.52V19.68C12.96 19.04 14.88 18.48 16.64 18.08L16.56 18H16.8C15.6 16.8 14.48 15.44 13.6 14.08ZM24.48 18.32C23.76 18.32 23.12 18.32 22.4 18.48C23.2 18.88 24 19.04 24.8 19.12C25.36 19.2 25.92 19.12 26.4 18.96C26.4 18.72 26.08 18.32 24.48 18.32Z" fill="#EB0000"/>
<path d="M16.5057 31.4V25.5818H18.8011C19.2424 25.5818 19.6184 25.6661 19.929 25.8347C20.2396 26.0014 20.4763 26.2334 20.6392 26.5307C20.804 26.8262 20.8864 27.1671 20.8864 27.5534C20.8864 27.9398 20.803 28.2807 20.6364 28.5762C20.4697 28.8716 20.2282 29.1017 19.9119 29.2665C19.5975 29.4313 19.2169 29.5137 18.7699 29.5137H17.3068V28.5279H18.571C18.8078 28.5279 19.0028 28.4871 19.1562 28.4057C19.3116 28.3224 19.4271 28.2078 19.5028 28.062C19.5805 27.9142 19.6193 27.7447 19.6193 27.5534C19.6193 27.3603 19.5805 27.1917 19.5028 27.0478C19.4271 26.9019 19.3116 26.7892 19.1562 26.7097C19.0009 26.6282 18.804 26.5875 18.5653 26.5875H17.7358V31.4H16.5057ZM23.7479 31.4H21.6854V25.5818H23.7649C24.3501 25.5818 24.8539 25.6983 25.2763 25.9313C25.6986 26.1623 26.0234 26.4947 26.2507 26.9284C26.4799 27.3621 26.5945 27.8811 26.5945 28.4853C26.5945 29.0913 26.4799 29.6121 26.2507 30.0478C26.0234 30.4834 25.6967 30.8176 25.2706 31.0506C24.8464 31.2835 24.3388 31.4 23.7479 31.4ZM22.9155 30.346H23.6967C24.0604 30.346 24.3662 30.2817 24.6143 30.1529C24.8643 30.0222 25.0518 29.8205 25.1768 29.5478C25.3037 29.2731 25.3672 28.919 25.3672 28.4853C25.3672 28.0553 25.3037 27.704 25.1768 27.4313C25.0518 27.1585 24.8653 26.9578 24.6172 26.829C24.3691 26.7002 24.0632 26.6358 23.6996 26.6358H22.9155V30.346ZM27.5057 31.4V25.5818H31.358V26.596H28.7358V27.9824H31.1023V28.9966H28.7358V31.4H27.5057Z" fill="#EB0000"/>
</g>
<defs>
<clipPath id="clip0_2286_138">
<rect width="32" height="32" fill="white"/>
</clipPath>
</defs>
</svg>
