<svg width="28" height="28" viewBox="0 0 28 28" fill="none" xmlns="http://www.w3.org/2000/svg">
<g clip-path="url(#clip0_2192_67)">
<path d="M9.28155 14C9.28155 16.6082 11.3916 18.7182 13.9997 18.7182C16.6078 18.7182 18.7179 16.6082 18.7179 14C18.7179 11.3919 16.6078 9.28188 13.9997 9.28188C11.3916 9.28188 9.28155 11.3886 9.28155 14ZM27.0571 8.96554L19.1722 9.37274C21.3125 11.8732 21.3462 15.4808 19.5458 18.2471L13.219 27.9796C15.8439 28.1209 18.5496 27.5454 20.9996 26.1219C27.0571 22.622 29.5138 15.2822 27.0571 8.96554ZM7.54841 16.6889L2.28169 6.3305C0.789994 8.61004 -0.00306801 11.2758 8.91952e-06 14C8.91952e-06 20.9999 5.12538 26.7983 11.8257 27.8248L15.4232 20.7778C12.1724 21.3903 9.03251 19.6067 7.54841 16.6889ZM14.9016 7.08096L26.4918 7.69008C25.3072 5.34109 23.4428 3.29835 20.9928 1.87482C18.7751 0.592635 16.3386 -0.0164874 13.9492 0.000339131C9.82673 0.0171657 5.79845 1.85799 3.10956 5.19975L7.42389 11.8261C8.50079 8.73333 11.6238 6.88914 14.9016 7.08096Z" fill="#2F80ED"/>
</g>
<defs>
<clipPath id="clip0_2192_67">
<rect width="28" height="28" fill="white"/>
</clipPath>
</defs>
</svg>
