<svg width="32" height="32" viewBox="0 0 32 32" fill="none" xmlns="http://www.w3.org/2000/svg">
<g opacity="0.8">
<path d="M0 8C0 6.93913 0.421427 5.92172 1.17157 5.17157C1.92172 4.42143 2.93913 4 4 4H28C29.0609 4 30.0783 4.42143 30.8284 5.17157C31.5786 5.92172 32 6.93913 32 8V24C32 25.0609 31.5786 26.0783 30.8284 26.8284C30.0783 27.5786 29.0609 28 28 28H4C2.93913 28 1.92172 27.5786 1.17157 26.8284C0.421427 26.0783 0 25.0609 0 24V8ZM23 10C22.7348 10 22.4804 10.1054 22.2929 10.2929C22.1054 10.4804 22 10.7348 22 11V18.586L19.708 16.292C19.5202 16.1042 19.2656 15.9987 19 15.9987C18.7344 15.9987 18.4798 16.1042 18.292 16.292C18.1042 16.4798 17.9987 16.7344 17.9987 17C17.9987 17.2656 18.1042 17.5202 18.292 17.708L22.292 21.708C22.3849 21.8011 22.4952 21.875 22.6167 21.9254C22.7382 21.9758 22.8685 22.0018 23 22.0018C23.1315 22.0018 23.2618 21.9758 23.3833 21.9254C23.5048 21.875 23.6151 21.8011 23.708 21.708L27.708 17.708C27.8958 17.5202 28.0013 17.2656 28.0013 17C28.0013 16.7344 27.8958 16.4798 27.708 16.292C27.5202 16.1042 27.2656 15.9987 27 15.9987C26.7344 15.9987 26.4798 16.1042 26.292 16.292L24 18.586V11C24 10.7348 23.8946 10.4804 23.7071 10.2929C23.5196 10.1054 23.2652 10 23 10ZM7.12 14.02H7.232L10.088 20.498H11.636L14.476 14.018H14.588V22H16.734V10.002H14.334L10.914 17.79H10.836L7.416 10.002H5V22H7.12V14.02Z" fill="#666666"/>
</g>
</svg>
