<svg width="32" height="32" viewBox="0 0 32 32" fill="none" xmlns="http://www.w3.org/2000/svg">
<path d="M31.9625 4.43487C31.9879 4.2436 31.9693 4.04905 31.908 3.86609C31.8468 3.68313 31.7445 3.51662 31.609 3.3793C31.4735 3.24198 31.3084 3.13749 31.1264 3.07381C30.9443 3.01014 30.7501 2.98898 30.5586 3.01194C26.6754 2.93652 22.7883 3.01194 18.8973 2.97794V0L16.7227 0C11.1496 1.01649 5.57305 1.98764 0 2.98537L0 29.0373C5.54649 30.0311 11.093 30.9796 16.6398 32H18.8977V29.0748H29.8102C30.4309 29.0373 31.116 29.0748 31.6465 28.6985C32.0719 28.0247 31.9625 27.1927 32 26.4396C31.9625 19.1171 32.0266 11.7687 31.9625 4.43487ZM12.1602 21.4068H10.0699C9.57852 19.3394 8.75859 16.3228 8.4293 14.7236H8.41563C8.07656 16.3849 7.23438 19.5274 6.73633 21.4068H4.64766L2.27227 12.0708H4.42422C5.29883 16.3603 5.69687 18.2632 5.80625 19.2902H5.81992C6.17461 17.5753 7.07578 14.3258 7.61992 12.0708H9.43281C9.9125 13.8619 10.8563 17.4843 11.1602 19.1929H11.1738C11.4836 17.1372 12.4 13.5215 12.7277 12.0708H14.6875L12.1602 21.4068ZM30.8938 27.9188H18.8973V24.9409H28.3496V23.4351H18.8973V21.5905H28.3496V20.0843H18.8973V18.2397H28.3496V16.7339H18.8973V14.8518H28.3496V13.4023H18.8973V11.5202H28.3496V10.0519H18.8973V8.18856H28.3496V6.70155H18.8973V4.09604H30.8938V27.9188Z" fill="url(#paint0_linear_2134_1226)"/>
<defs>
<linearGradient id="paint0_linear_2134_1226" x1="16" y1="0" x2="16" y2="32" gradientUnits="userSpaceOnUse">
<stop stop-color="#3C8FFF"/>
<stop offset="1" stop-color="#2F80ED"/>
</linearGradient>
</defs>
</svg>
