<svg width="52" height="52" viewBox="0 0 52 52" fill="none" xmlns="http://www.w3.org/2000/svg">
<g filter="url(#filter0_d_2203_283)">
<rect x="4" y="2" width="44" height="44" rx="10" fill="url(#paint0_linear_2203_283)"/>
<rect x="4.5" y="2.5" width="43" height="43" rx="9.5" stroke="black" stroke-opacity="0.08"/>
<path d="M13.75 16.125C13.75 15.4288 14.0265 14.7611 14.5188 14.2688C15.0111 13.7766 15.6788 13.5 16.375 13.5H21.212C22.8885 13.5 24.292 14.48 25.2562 15.572C25.9737 16.384 26.84 17 27.75 17H35.625C36.3212 17 36.9888 17.2766 37.4811 17.7688C37.9734 18.2611 38.25 18.9288 38.25 19.625V20.745C39.2475 21.2087 39.895 22.278 39.748 23.4505L38.628 32.4175C38.4957 33.4763 37.9809 34.4503 37.1807 35.1561C36.3804 35.862 35.3498 36.251 34.2827 36.25H17.7155C16.649 36.2501 15.6192 35.8607 14.8197 35.155C14.0202 34.4492 13.506 33.4757 13.3737 32.4175L12.2537 23.4505C12.1847 22.8992 12.2924 22.3403 12.5613 21.8541C12.8302 21.3679 13.2464 20.9796 13.75 20.745V16.125ZM15.5 20.5H36.5V19.625C36.5 19.3929 36.4078 19.1704 36.2437 19.0063C36.0796 18.8422 35.857 18.75 35.625 18.75H27.75C26.063 18.75 24.7575 17.6492 23.9455 16.7305C23.1545 15.8345 22.185 15.25 21.212 15.25H16.375C16.1429 15.25 15.9203 15.3422 15.7563 15.5063C15.5922 15.6704 15.5 15.8929 15.5 16.125V20.5ZM14.8577 22.25C14.7337 22.25 14.6111 22.2764 14.498 22.3275C14.3849 22.3785 14.284 22.453 14.2019 22.546C14.1198 22.639 14.0585 22.7484 14.0219 22.8669C13.9853 22.9855 13.9743 23.1104 13.9897 23.2335L15.1097 32.2005C15.1891 32.8356 15.4977 33.4197 15.9776 33.8432C16.4574 34.2667 17.0755 34.5002 17.7155 34.5H34.2845C34.9245 34.5002 35.5425 34.2667 36.0224 33.8432C36.5022 33.4197 36.8109 32.8356 36.8902 32.2005L38.0102 23.2335C38.0256 23.1104 38.0146 22.9855 37.9781 22.8669C37.9415 22.7484 37.8801 22.639 37.798 22.546C37.7159 22.453 37.615 22.3785 37.502 22.3275C37.3889 22.2764 37.2663 22.25 37.1422 22.25H14.8577Z" fill="#36B24D"/>
</g>
<defs>
<filter id="filter0_d_2203_283" x="0" y="0" width="52" height="52" filterUnits="userSpaceOnUse" color-interpolation-filters="sRGB">
<feFlood flood-opacity="0" result="BackgroundImageFix"/>
<feColorMatrix in="SourceAlpha" type="matrix" values="0 0 0 0 0 0 0 0 0 0 0 0 0 0 0 0 0 0 127 0" result="hardAlpha"/>
<feOffset dy="2"/>
<feGaussianBlur stdDeviation="2"/>
<feComposite in2="hardAlpha" operator="out"/>
<feColorMatrix type="matrix" values="0 0 0 0 0 0 0 0 0 0 0 0 0 0 0 0 0 0 0.08 0"/>
<feBlend mode="normal" in2="BackgroundImageFix" result="effect1_dropShadow_2203_283"/>
<feBlend mode="normal" in="SourceGraphic" in2="effect1_dropShadow_2203_283" result="shape"/>
</filter>
<linearGradient id="paint0_linear_2203_283" x1="26" y1="2" x2="26" y2="46" gradientUnits="userSpaceOnUse">
<stop stop-color="white"/>
<stop offset="1" stop-color="#F0F0F0"/>
</linearGradient>
</defs>
</svg>
