<svg width="214" height="150" viewBox="0 0 214 150" fill="none" xmlns="http://www.w3.org/2000/svg">
<path fill-rule="evenodd" clip-rule="evenodd" d="M99.7416 4C99.7416 1.79086 101.532 0 103.742 0H134.838C137.047 0 138.838 1.79086 138.838 4V14.8742C138.838 17.0833 137.047 18.8742 134.838 18.8742H103.742C101.532 18.8742 99.7416 17.0833 99.7416 14.8742V11.4816L78.3103 11.4816C73.4031 11.4816 69.3032 15.2189 68.8502 20.1052L64.6587 65.3105C64.4102 67.9897 63.088 70.3306 61.1409 71.9239C63.8462 70.4636 66.0081 68.0526 67.1258 65.0391L70.3073 56.4618C71.6191 52.9251 74.993 50.5781 78.7651 50.5781H99.7416V47.1411C99.7416 44.9319 101.532 43.1411 103.742 43.1411H134.838C137.047 43.1411 138.838 44.9319 138.838 47.1411V49.5H140C143.33 49.5 146.184 47.1205 146.784 43.8448L148.744 33.13C149.341 29.8689 152.183 27.5 155.498 27.5H174V24C174 21.7909 175.79 20 178 20H209.096C211.305 20 213.096 21.7909 213.096 24V34.8742C213.096 37.0833 211.305 38.8742 209.096 38.8742H178C175.79 38.8742 174 37.0833 174 34.8742V30.5H155.498C153.631 30.5 152.031 31.8338 151.695 33.67L149.735 44.3848C148.875 49.0854 144.779 52.5 140 52.5H138.841V53.5H140C144.766 53.5 148.813 56.9876 149.518 61.7008L151.234 73.1782C151.52 75.0873 153.159 76.5 155.089 76.5H174V71.8596C174 69.6504 175.79 67.8596 178 67.8596H209.096C211.305 67.8596 213.096 69.6504 213.096 71.8596V82.7338C213.096 84.9429 211.305 86.7338 209.096 86.7338H178C175.79 86.7338 174 84.9429 174 82.7338V79.5H155.089C151.674 79.5 148.772 77.0001 148.267 73.6218L146.551 62.1444C146.066 58.9005 143.28 56.5 140 56.5H138.838V58.0153C138.838 60.2244 137.047 62.0153 134.838 62.0153H103.742C101.532 62.0153 99.7416 60.2244 99.7416 58.0153V54.5781H78.7651C76.6656 54.5781 74.7878 55.8844 74.0576 57.8529L70.8762 66.4302C69.1915 70.9722 65.6949 74.4689 61.3867 76.2246C65.2523 77.9477 68.3527 81.2043 69.8133 85.3739L73.396 95.6016C74.1325 97.7041 76.117 99.1117 78.3448 99.1117H99.7416V95.0006C99.7416 92.7915 101.532 91.0006 103.742 91.0006H134.838C137.047 91.0006 138.838 92.7915 138.838 95.0006V105.875C138.838 108.084 137.047 109.875 134.838 109.875H103.742C101.532 109.875 99.7416 108.084 99.7416 105.875V103.112H78.3448C74.4176 103.112 70.9192 100.63 69.6209 96.924L66.0382 86.6963C65.3323 84.6811 64.1124 82.9522 62.5563 81.6356C63.907 83.1824 64.7933 85.1531 64.9876 87.3394L68.9052 131.406C69.3306 136.192 73.3396 139.86 78.1438 139.86H99.7415V134.771C99.7415 132.562 101.532 130.771 103.741 130.771H134.838C137.047 130.771 138.838 132.562 138.838 134.771V145.645C138.838 147.855 137.047 149.645 134.838 149.645H103.741C101.532 149.645 99.7415 147.855 99.7415 145.645V143.86H78.1438C71.2678 143.86 65.5298 138.61 64.9209 131.761L61.0034 87.6936C60.7269 84.5839 58.1217 82.2 54.9997 82.2H53.9262V84C53.9262 86.2091 52.1353 88 49.9262 88H3.99988C1.79074 88 -0.00012207 86.2091 -0.00012207 84V68C-0.00012207 65.7909 1.79074 64 3.99988 64H49.9262C52.1353 64 53.9262 65.7909 53.9262 68V70.1152H54.9997C57.9441 70.1152 60.4039 67.8729 60.6758 64.9411L64.8672 19.7359C65.5111 12.7923 71.337 7.48158 78.3103 7.48159L99.7416 7.48159V4Z" fill="black"/>
</svg>
