<svg width="52" height="52" viewBox="0 0 52 52" fill="none" xmlns="http://www.w3.org/2000/svg">
<g filter="url(#filter0_d_2132_1039)">
<rect x="4" y="2" width="44" height="44" rx="10" fill="url(#paint0_linear_2132_1039)"/>
<rect x="4.5" y="2.5" width="43" height="43" rx="9.5" stroke="black" stroke-opacity="0.08"/>
<path d="M25.3997 20.9323C25.5922 20.3548 26.4077 20.3548 26.6002 20.9323L27.7289 24.322C27.9774 25.0672 28.396 25.7442 28.9515 26.2995C29.5071 26.8547 30.1844 27.273 30.9297 27.521L34.3177 28.6498C34.8952 28.8423 34.8952 29.6578 34.3177 29.8503L30.9279 30.979C30.1828 31.2275 29.5057 31.6461 28.9504 32.2016C28.3952 32.7572 27.977 33.4345 27.7289 34.1798L26.6002 37.5678C26.5587 37.6942 26.4783 37.8043 26.3705 37.8824C26.2627 37.9605 26.133 38.0025 25.9999 38.0025C25.8668 38.0025 25.7371 37.9605 25.6293 37.8824C25.5215 37.8043 25.4412 37.6942 25.3997 37.5678L24.2709 34.178C24.0226 33.433 23.6043 32.7561 23.049 32.2009C22.4938 31.6456 21.8169 31.2273 21.0719 30.979L17.6822 29.8503C17.5557 29.8088 17.4456 29.7284 17.3675 29.6206C17.2894 29.5128 17.2474 29.3831 17.2474 29.25C17.2474 29.1169 17.2894 28.9872 17.3675 28.8794C17.4456 28.7716 17.5557 28.6913 17.6822 28.6498L21.0719 27.521C21.8169 27.2727 22.4938 26.8544 23.049 26.2991C23.6043 25.7439 24.0226 25.067 24.2709 24.322L25.3997 20.9323ZM18.6394 12.009C18.6645 11.9332 18.7128 11.8673 18.7776 11.8205C18.8423 11.7738 18.9201 11.7486 18.9999 11.7486C19.0797 11.7486 19.1575 11.7738 19.2223 11.8205C19.287 11.8673 19.3353 11.9332 19.3604 12.009L20.0377 14.0425C20.3404 14.949 21.0509 15.6595 21.9574 15.9623L23.9909 16.6395C24.0667 16.6646 24.1326 16.7129 24.1794 16.7777C24.2261 16.8424 24.2513 16.9202 24.2513 17C24.2513 17.0798 24.2261 17.1576 24.1794 17.2224C24.1326 17.2871 24.0667 17.3354 23.9909 17.3605L21.9574 18.0378C21.5103 18.1867 21.1041 18.4377 20.7709 18.771C20.4376 19.1042 20.1866 19.5104 20.0377 19.9575L19.3604 21.991C19.3353 22.0668 19.287 22.1327 19.2223 22.1795C19.1575 22.2262 19.0797 22.2514 18.9999 22.2514C18.9201 22.2514 18.8423 22.2262 18.7776 22.1795C18.7128 22.1327 18.6645 22.0668 18.6394 21.991L17.9622 19.9575C17.8132 19.5104 17.5622 19.1042 17.229 18.771C16.8957 18.4377 16.4895 18.1867 16.0424 18.0378L14.0089 17.3605C13.9331 17.3354 13.8672 17.2871 13.8204 17.2224C13.7737 17.1576 13.7485 17.0798 13.7485 17C13.7485 16.9202 13.7737 16.8424 13.8204 16.7777C13.8672 16.7129 13.9331 16.6646 14.0089 16.6395L16.0424 15.9623C16.4895 15.8133 16.8957 15.5623 17.229 15.229C17.5622 14.8958 17.8132 14.4896 17.9622 14.0425L18.6394 12.009ZM31.0102 10.1733C31.0274 10.1234 31.0598 10.0802 31.1028 10.0496C31.1457 10.0191 31.1972 10.0026 31.2499 10.0026C31.3026 10.0026 31.3541 10.0191 31.397 10.0496C31.44 10.0802 31.4724 10.1234 31.4897 10.1733L31.9412 11.5278C32.1424 12.1333 32.6167 12.6075 33.2222 12.8088L34.5767 13.2603C34.6265 13.2775 34.6697 13.3099 34.7003 13.3529C34.7309 13.3958 34.7473 13.4473 34.7473 13.5C34.7473 13.5527 34.7309 13.6042 34.7003 13.6471C34.6697 13.6901 34.6265 13.7225 34.5767 13.7398L33.2222 14.1913C32.9238 14.2905 32.6526 14.458 32.4303 14.6803C32.2079 14.9027 32.0404 15.1739 31.9412 15.4723L31.4897 16.8268C31.4724 16.8766 31.44 16.9198 31.397 16.9504C31.3541 16.981 31.3026 16.9974 31.2499 16.9974C31.1972 16.9974 31.1457 16.981 31.1028 16.9504C31.0598 16.9198 31.0274 16.8766 31.0102 16.8268L30.5587 15.4723C30.4594 15.1739 30.2919 14.9027 30.0696 14.6803C29.8472 14.458 29.5761 14.2905 29.2777 14.1913L27.9249 13.7398C27.8751 13.7225 27.8319 13.6901 27.8013 13.6471C27.7707 13.6042 27.7543 13.5527 27.7543 13.5C27.7543 13.4473 27.7707 13.3958 27.8013 13.3529C27.8319 13.3099 27.8751 13.2775 27.9249 13.2603L29.2794 12.8088C29.8849 12.6075 30.3592 12.1333 30.5604 11.5278L31.0102 10.175V10.1733Z" fill="white"/>
</g>
<defs>
<filter id="filter0_d_2132_1039" x="0" y="0" width="52" height="52" filterUnits="userSpaceOnUse" color-interpolation-filters="sRGB">
<feFlood flood-opacity="0" result="BackgroundImageFix"/>
<feColorMatrix in="SourceAlpha" type="matrix" values="0 0 0 0 0 0 0 0 0 0 0 0 0 0 0 0 0 0 127 0" result="hardAlpha"/>
<feOffset dy="2"/>
<feGaussianBlur stdDeviation="2"/>
<feComposite in2="hardAlpha" operator="out"/>
<feColorMatrix type="matrix" values="0 0 0 0 0 0 0 0 0 0 0 0 0 0 0 0 0 0 0.16 0"/>
<feBlend mode="normal" in2="BackgroundImageFix" result="effect1_dropShadow_2132_1039"/>
<feBlend mode="normal" in="SourceGraphic" in2="effect1_dropShadow_2132_1039" result="shape"/>
</filter>
<linearGradient id="paint0_linear_2132_1039" x1="26" y1="2" x2="26" y2="46" gradientUnits="userSpaceOnUse">
<stop stop-color="#BB6BD9"/>
<stop offset="1" stop-color="#9B51E0"/>
</linearGradient>
</defs>
</svg>
