<svg width="52" height="52" viewBox="0 0 52 52" fill="none" xmlns="http://www.w3.org/2000/svg">
<g filter="url(#filter0_d_2132_1044)">
<rect x="4" y="2" width="44" height="44" rx="10" fill="url(#paint0_linear_2132_1044)"/>
<rect x="4.5" y="2.5" width="43" height="43" rx="9.5" stroke="black" stroke-opacity="0.08"/>
<path d="M20.75 20.5C20.5368 20.5001 20.3309 20.578 20.1711 20.7191C20.0112 20.8603 19.9084 21.0549 19.882 21.2665L19.007 28.2665C18.9916 28.3896 19.0026 28.5145 19.0392 28.6331C19.0758 28.7516 19.1371 28.861 19.2192 28.954C19.3013 29.047 19.4022 29.1215 19.5153 29.1725C19.6283 29.2236 19.751 29.25 19.875 29.25H25.125V32.778C23.6147 32.8742 22.5 33.2172 22.5 33.625C22.5 34.108 24.0662 34.5 26 34.5C27.9337 34.5 29.5 34.108 29.5 33.625C29.5 33.2172 28.3852 32.8742 26.875 32.778V29.25H32.125C32.249 29.25 32.3717 29.2236 32.4847 29.1725C32.5978 29.1215 32.6987 29.047 32.7808 28.954C32.8629 28.861 32.9242 28.7516 32.9608 28.6331C32.9974 28.5145 33.0084 28.3896 32.993 28.2665L32.118 21.2665C32.0916 21.0549 31.9888 20.8603 31.8289 20.7191C31.6691 20.578 31.4632 20.5001 31.25 20.5H20.75ZM24.25 27.115V22.635C24.25 22.467 24.4355 22.362 24.5825 22.4495L28.31 24.6877C28.3422 24.7072 28.3689 24.7347 28.3874 24.7675C28.4059 24.8003 28.4157 24.8373 28.4157 24.875C28.4157 24.9127 28.4059 24.9497 28.3874 24.9825C28.3689 25.0153 28.3422 25.0428 28.31 25.0623L24.5825 27.3022C24.549 27.3226 24.5107 27.3336 24.4716 27.3342C24.4324 27.3347 24.3938 27.3247 24.3599 27.3052C24.3259 27.2857 24.2978 27.2574 24.2784 27.2234C24.2591 27.1893 24.2493 27.1507 24.25 27.1115V27.115Z" fill="white"/>
<path d="M36.5 34.5V17.875L28.625 10H19C18.0717 10 17.1815 10.3687 16.5251 11.0251C15.8687 11.6815 15.5 12.5717 15.5 13.5V34.5C15.5 35.4283 15.8687 36.3185 16.5251 36.9749C17.1815 37.6313 18.0717 38 19 38H33C33.9283 38 34.8185 37.6313 35.4749 36.9749C36.1313 36.3185 36.5 35.4283 36.5 34.5ZM28.625 15.25C28.625 15.9462 28.9016 16.6139 29.3938 17.1062C29.8861 17.5984 30.5538 17.875 31.25 17.875H34.75V34.5C34.75 34.9641 34.5656 35.4092 34.2374 35.7374C33.9092 36.0656 33.4641 36.25 33 36.25H19C18.5359 36.25 18.0908 36.0656 17.7626 35.7374C17.4344 35.4092 17.25 34.9641 17.25 34.5V13.5C17.25 13.0359 17.4344 12.5908 17.7626 12.2626C18.0908 11.9344 18.5359 11.75 19 11.75H28.625V15.25Z" fill="white"/>
</g>
<defs>
<filter id="filter0_d_2132_1044" x="0" y="0" width="52" height="52" filterUnits="userSpaceOnUse" color-interpolation-filters="sRGB">
<feFlood flood-opacity="0" result="BackgroundImageFix"/>
<feColorMatrix in="SourceAlpha" type="matrix" values="0 0 0 0 0 0 0 0 0 0 0 0 0 0 0 0 0 0 127 0" result="hardAlpha"/>
<feOffset dy="2"/>
<feGaussianBlur stdDeviation="2"/>
<feComposite in2="hardAlpha" operator="out"/>
<feColorMatrix type="matrix" values="0 0 0 0 0 0 0 0 0 0 0 0 0 0 0 0 0 0 0.16 0"/>
<feBlend mode="normal" in2="BackgroundImageFix" result="effect1_dropShadow_2132_1044"/>
<feBlend mode="normal" in="SourceGraphic" in2="effect1_dropShadow_2132_1044" result="shape"/>
</filter>
<linearGradient id="paint0_linear_2132_1044" x1="26" y1="2" x2="26" y2="46" gradientUnits="userSpaceOnUse">
<stop stop-color="#F2C94C"/>
<stop offset="1" stop-color="#F2994A"/>
</linearGradient>
</defs>
</svg>
