<svg width="44" height="44" viewBox="0 0 44 44" fill="none" xmlns="http://www.w3.org/2000/svg">
<g clip-path="url(#clip0_2132_1028)">
<path d="M31.3929 -0.0982666L10.6072 -0.0982666C8.87373 -0.0982666 7.46436 1.31111 7.46436 3.04459L7.46436 40.7589C7.46436 42.4924 8.87373 43.9017 10.6072 43.9017H31.3929C33.1264 43.9017 34.5358 42.4924 34.5358 40.7589V3.04459C34.5358 1.31111 33.1264 -0.0982666 31.3929 -0.0982666ZM21.0001 37.3214C19.9148 37.3214 19.0358 36.4424 19.0358 35.3571C19.0358 34.2718 19.9148 33.3928 21.0001 33.3928C22.0853 33.3928 22.9644 34.2718 22.9644 35.3571C22.9644 36.4424 22.0853 37.3214 21.0001 37.3214Z" fill="black"/>
</g>
<defs>
<clipPath id="clip0_2132_1028">
<rect width="44" height="44" fill="white"/>
</clipPath>
</defs>
</svg>
