<svg width="44" height="44" viewBox="0 0 44 44" fill="none" xmlns="http://www.w3.org/2000/svg">
<g clip-path="url(#clip0_2132_1026)">
<path d="M38.6962 0H5.30336C4.43417 0 3.73193 0.702232 3.73193 1.57143V33.9821C3.73193 34.8513 4.43417 35.5536 5.30336 35.5536H38.6962C39.5654 35.5536 40.2677 34.8513 40.2677 33.9821V1.57143C40.2677 0.702232 39.5654 0 38.6962 0ZM11.5891 12.9643C11.5891 11.3388 12.9101 10.0179 14.5355 10.0179C16.161 10.0179 17.4819 11.3388 17.4819 12.9643C17.4819 14.5897 16.161 15.9107 14.5355 15.9107C12.9101 15.9107 11.5891 14.5897 11.5891 12.9643ZM29.8569 25.1429C29.8569 25.3589 29.6801 25.5357 29.4641 25.5357H14.5355C14.3194 25.5357 14.1426 25.3589 14.1426 25.1429V22.1964C14.1426 21.9804 14.3194 21.8036 14.5355 21.8036H29.4641C29.6801 21.8036 29.8569 21.9804 29.8569 22.1964V25.1429ZM29.4641 15.9107C27.8386 15.9107 26.5176 14.5897 26.5176 12.9643C26.5176 11.3388 27.8386 10.0179 29.4641 10.0179C31.0895 10.0179 32.4105 11.3388 32.4105 12.9643C32.4105 14.5897 31.0895 15.9107 29.4641 15.9107ZM36.0935 39.2857H7.90604C7.22836 39.2857 6.67836 39.9879 6.67836 40.8571V43.6071C6.67836 43.8232 6.81586 44 6.98283 44H37.0118C37.1788 44 37.3163 43.8232 37.3163 43.6071V40.8571C37.3212 39.9879 36.7712 39.2857 36.0935 39.2857Z" fill="black"/>
</g>
<defs>
<clipPath id="clip0_2132_1026">
<rect width="44" height="44" fill="white"/>
</clipPath>
</defs>
</svg>
