<svg width="44" height="44" viewBox="0 0 44 44" fill="none" xmlns="http://www.w3.org/2000/svg">
<path d="M39.2859 3.92859H24.3573C23.9251 3.92859 23.5716 4.28216 23.5716 4.7143V19.6429C23.5716 20.075 23.9251 20.4286 24.3573 20.4286H39.2859C39.718 20.4286 40.0716 20.075 40.0716 19.6429V4.7143C40.0716 4.28216 39.718 3.92859 39.2859 3.92859ZM39.2859 23.5714H24.3573C23.9251 23.5714 23.5716 23.925 23.5716 24.3572V39.2857C23.5716 39.7179 23.9251 40.0714 24.3573 40.0714H39.2859C39.718 40.0714 40.0716 39.7179 40.0716 39.2857V24.3572C40.0716 23.925 39.718 23.5714 39.2859 23.5714ZM19.643 3.92859H4.71443C4.28228 3.92859 3.92871 4.28216 3.92871 4.7143V19.6429C3.92871 20.075 4.28228 20.4286 4.71443 20.4286H19.643C20.0751 20.4286 20.4287 20.075 20.4287 19.6429V4.7143C20.4287 4.28216 20.0751 3.92859 19.643 3.92859ZM19.643 23.5714H4.71443C4.28228 23.5714 3.92871 23.925 3.92871 24.3572V39.2857C3.92871 39.7179 4.28228 40.0714 4.71443 40.0714H19.643C20.0751 40.0714 20.4287 39.7179 20.4287 39.2857V24.3572C20.4287 23.925 20.0751 23.5714 19.643 23.5714Z" fill="black"/>
</svg>
