<svg width="44" height="44" viewBox="0 0 44 44" fill="none" xmlns="http://www.w3.org/2000/svg">
<path d="M15.2594 22.0001C15.2594 25.726 18.2737 28.7403 21.9996 28.7403C25.7255 28.7403 28.7398 25.726 28.7398 22.0001C28.7398 18.2742 25.7255 15.2598 21.9996 15.2598C18.2737 15.2598 15.2594 18.2694 15.2594 22.0001ZM40.653 14.8079L29.3889 15.3896C32.4465 18.9617 32.4946 24.1154 29.9225 28.0673L20.8842 41.9708C24.6342 42.1727 28.4995 41.3506 31.9994 39.317C40.653 34.3171 44.1626 23.8318 40.653 14.8079ZM12.7834 25.8413L5.25956 11.0436C3.12856 14.3001 1.99562 18.1083 2.00001 22.0001C2.00001 31.9999 9.32197 40.2833 18.8939 41.7497L24.0332 31.6826C19.3891 32.5575 14.9036 30.0095 12.7834 25.8413ZM23.288 12.1157L39.8454 12.9858C38.1531 9.63013 35.4897 6.71193 31.9898 4.67831C28.8216 2.84662 25.3409 1.97645 21.9275 2.00048C16.0382 2.02452 10.2835 4.65428 6.44223 9.42822L12.6056 18.8944C14.144 14.4762 18.6054 11.8416 23.288 12.1157Z" fill="url(#paint0_linear_2132_127)"/>
<defs>
<linearGradient id="paint0_linear_2132_127" x1="22" y1="2" x2="22" y2="42.0005" gradientUnits="userSpaceOnUse">
<stop/>
<stop offset="1" stop-color="#834EB5"/>
</linearGradient>
</defs>
</svg>
