<svg width="34" height="36" viewBox="0 0 34 36" fill="none" xmlns="http://www.w3.org/2000/svg">
<g clip-path="url(#clip0_2139_1256)">
<path d="M28.8705 6.86941C27.7895 6.29226 26.7519 5.71199 25.5585 5.07744C26.1589 4.53209 26.8336 4.50536 27.3702 4.72872C28.9803 5.39878 30.5928 6.11232 32.1262 6.96255C33.0053 7.44507 32.9262 8.32404 32.0625 8.84468C30.6316 9.73362 29.1521 10.5387 27.6751 11.3873C27.5908 11.437 27.4861 11.5101 27.4196 11.493C27.1564 11.4683 26.9111 11.3768 26.6453 11.3086C26.7194 11.085 26.7014 10.7806 26.8471 10.661C27.3453 10.2321 27.8692 9.86695 28.37 9.48159C28.6408 9.26561 28.9143 9.09311 29.1263 8.61938C28.6254 8.6336 28.1016 8.62764 27.6007 8.64186C17.2614 9.38605 8.814 16.6964 6.46677 26.8425C6.17305 28.1518 6.03266 29.4718 5.80539 30.798C5.72367 31.2624 5.61895 31.7066 5.53723 32.1709C5.42991 32.2005 5.32002 32.1866 5.2127 32.2161C5.067 31.9646 4.81143 31.6992 4.8165 31.415C4.78317 30.4787 4.74983 29.5423 4.84683 28.5965C5.77587 19.1856 12.6669 11.0048 22.0809 8.25322C23.8824 7.73058 25.7683 7.52934 27.6031 7.20079C27.9915 7.12917 28.362 7.12433 28.753 7.09619C28.8169 7.06976 28.8552 6.97967 28.8705 6.86941Z" fill="black"/>
</g>
<defs>
<clipPath id="clip0_2139_1256">
<rect width="36.7715" height="11.7946" fill="white" transform="translate(33.1147 7.77771) rotate(131.256)"/>
</clipPath>
</defs>
</svg>
