<svg width="305" height="142" viewBox="0 0 305 142" fill="none" xmlns="http://www.w3.org/2000/svg">
<g opacity="0.7" filter="url(#filter0_d_2258_128)">
<rect x="12" y="6.80554" width="88" height="39.4056" rx="4" fill="white"/>
<rect x="13" y="7.80554" width="86" height="37.4056" rx="3" stroke="#A6A6A6" stroke-width="2" stroke-linejoin="round"/>
</g>
<g opacity="0.7" filter="url(#filter1_d_2258_128)">
<path d="M53.726 78.8056C54.844 78.2524 56.156 78.2524 57.274 78.8056L98.7549 99.3315C101.723 100.8 101.723 105.033 98.7549 106.502L57.274 127.028C56.156 127.581 54.844 127.581 53.726 127.028L12.2451 106.502C9.27711 105.033 9.27712 100.8 12.2451 99.3315L53.726 78.8056Z" fill="white"/>
<path d="M54.1695 79.7018C55.008 79.2869 55.992 79.2869 56.8305 79.7018L98.3114 100.228C100.537 101.329 100.537 104.504 98.3114 105.605L56.8305 126.131C55.992 126.546 55.008 126.546 54.1695 126.131L12.6886 105.605C10.4626 104.504 10.4626 101.329 12.6886 100.228L54.1695 79.7018Z" stroke="#A6A6A6" stroke-width="2" stroke-linejoin="round"/>
</g>
<path opacity="0.7" d="M55 46L55 63" stroke="#A6A6A6" stroke-width="2"/>
<path opacity="0.7" d="M50.5442 63L60.4558 63C61.1809 63 61.6649 63.7475 61.3684 64.4091L56.4125 75.4644C56.0593 76.2523 54.9407 76.2523 54.5875 75.4644L49.6316 64.4091C49.3351 63.7475 49.8191 63 50.5442 63Z" fill="#A6A6A6"/>
<path opacity="0.7" d="M192 102.5L100 102.5" stroke="#A6A6A6" stroke-width="2"/>
<path opacity="0.7" d="M191 107.456V97.5442C191 96.8191 191.747 96.3351 192.409 96.6316L203.464 101.587C204.252 101.941 204.252 103.059 203.464 103.413L192.409 108.368C191.747 108.665 191 108.181 191 107.456Z" fill="#A6A6A6"/>
<g opacity="0.7" filter="url(#filter2_d_2258_128)">
<rect x="206" y="84.6555" width="89" height="37.4833" rx="18.7417" fill="white"/>
<rect x="207" y="85.6555" width="87" height="35.4833" rx="17.7417" stroke="#A6A6A6" stroke-width="2" stroke-linejoin="round"/>
</g>
<defs>
<filter id="filter0_d_2258_128" x="2" y="0.805542" width="108" height="59.4055" filterUnits="userSpaceOnUse" color-interpolation-filters="sRGB">
<feFlood flood-opacity="0" result="BackgroundImageFix"/>
<feColorMatrix in="SourceAlpha" type="matrix" values="0 0 0 0 0 0 0 0 0 0 0 0 0 0 0 0 0 0 127 0" result="hardAlpha"/>
<feOffset dy="4"/>
<feGaussianBlur stdDeviation="5"/>
<feComposite in2="hardAlpha" operator="out"/>
<feColorMatrix type="matrix" values="0 0 0 0 0 0 0 0 0 0 0 0 0 0 0 0 0 0 0.04 0"/>
<feBlend mode="normal" in2="BackgroundImageFix" result="effect1_dropShadow_2258_128"/>
<feBlend mode="normal" in="SourceGraphic" in2="effect1_dropShadow_2258_128" result="shape"/>
</filter>
<filter id="filter1_d_2258_128" x="0.019043" y="72.3906" width="110.962" height="69.052" filterUnits="userSpaceOnUse" color-interpolation-filters="sRGB">
<feFlood flood-opacity="0" result="BackgroundImageFix"/>
<feColorMatrix in="SourceAlpha" type="matrix" values="0 0 0 0 0 0 0 0 0 0 0 0 0 0 0 0 0 0 127 0" result="hardAlpha"/>
<feOffset dy="4"/>
<feGaussianBlur stdDeviation="5"/>
<feComposite in2="hardAlpha" operator="out"/>
<feColorMatrix type="matrix" values="0 0 0 0 0 0 0 0 0 0 0 0 0 0 0 0 0 0 0.04 0"/>
<feBlend mode="normal" in2="BackgroundImageFix" result="effect1_dropShadow_2258_128"/>
<feBlend mode="normal" in="SourceGraphic" in2="effect1_dropShadow_2258_128" result="shape"/>
</filter>
<filter id="filter2_d_2258_128" x="196" y="78.6555" width="109" height="57.4833" filterUnits="userSpaceOnUse" color-interpolation-filters="sRGB">
<feFlood flood-opacity="0" result="BackgroundImageFix"/>
<feColorMatrix in="SourceAlpha" type="matrix" values="0 0 0 0 0 0 0 0 0 0 0 0 0 0 0 0 0 0 127 0" result="hardAlpha"/>
<feOffset dy="4"/>
<feGaussianBlur stdDeviation="5"/>
<feComposite in2="hardAlpha" operator="out"/>
<feColorMatrix type="matrix" values="0 0 0 0 0 0 0 0 0 0 0 0 0 0 0 0 0 0 0.04 0"/>
<feBlend mode="normal" in2="BackgroundImageFix" result="effect1_dropShadow_2258_128"/>
<feBlend mode="normal" in="SourceGraphic" in2="effect1_dropShadow_2258_128" result="shape"/>
</filter>
</defs>
</svg>
