<svg width="52" height="52" viewBox="0 0 52 52" fill="none" xmlns="http://www.w3.org/2000/svg">
<g filter="url(#filter0_d_2171_1075)">
<rect x="4" y="2" width="44" height="44" rx="10" fill="url(#paint0_linear_2171_1075)"/>
<rect x="4.5" y="2.5" width="43" height="43" rx="9.5" stroke="black" stroke-opacity="0.08"/>
<path d="M28.9578 17.762C29.0092 17.6152 29.0137 17.4562 28.9707 17.3067C28.9277 17.1573 28.8394 17.025 28.7178 16.928L28.4508 16.7345C27.5137 16.1151 26.4496 15.7138 25.3368 15.56C23.3223 15.293 20.7558 15.8435 18.2598 18.6995H16.6788C16.5802 18.6995 16.4825 18.719 16.3914 18.7568C16.3003 18.7947 16.2175 18.8501 16.1478 18.92L14.2188 20.8505C14.0787 20.9911 14 21.1815 14 21.38C14 21.5785 14.0787 21.7689 14.2188 21.9095L18.0753 25.778C18.145 25.8478 18.2278 25.9032 18.3189 25.9411C18.41 25.9789 18.5077 25.9983 18.6063 25.9983C18.705 25.9983 18.8027 25.9789 18.8938 25.9411C18.9849 25.9032 19.0677 25.8478 19.1373 25.778L21.0663 23.843C21.2065 23.7024 21.2853 23.512 21.2853 23.3135V22.355L33.8658 35.6645C33.9299 35.7514 34.012 35.8235 34.1064 35.8758C34.2009 35.928 34.3056 35.9593 34.4132 35.9674C34.5209 35.9755 34.629 35.9603 34.7303 35.9228C34.8315 35.8853 34.9235 35.8263 34.9998 35.75L37.2498 33.5C37.3859 33.3639 37.4644 33.1807 37.4691 32.9883C37.4739 32.796 37.4045 32.6091 37.2753 32.4665L23.5818 19.5215C24.7023 18.8375 26.2398 18.263 28.2498 18.263C28.4052 18.2631 28.5568 18.215 28.6836 18.1252C28.8104 18.0355 28.9063 17.9085 28.9578 17.762Z" fill="white"/>
</g>
<defs>
<filter id="filter0_d_2171_1075" x="0" y="0" width="52" height="52" filterUnits="userSpaceOnUse" color-interpolation-filters="sRGB">
<feFlood flood-opacity="0" result="BackgroundImageFix"/>
<feColorMatrix in="SourceAlpha" type="matrix" values="0 0 0 0 0 0 0 0 0 0 0 0 0 0 0 0 0 0 127 0" result="hardAlpha"/>
<feOffset dy="2"/>
<feGaussianBlur stdDeviation="2"/>
<feComposite in2="hardAlpha" operator="out"/>
<feColorMatrix type="matrix" values="0 0 0 0 0 0 0 0 0 0 0 0 0 0 0 0 0 0 0.16 0"/>
<feBlend mode="normal" in2="BackgroundImageFix" result="effect1_dropShadow_2171_1075"/>
<feBlend mode="normal" in="SourceGraphic" in2="effect1_dropShadow_2171_1075" result="shape"/>
</filter>
<linearGradient id="paint0_linear_2171_1075" x1="26" y1="2" x2="26" y2="46" gradientUnits="userSpaceOnUse">
<stop stop-color="#616161"/>
<stop offset="1"/>
</linearGradient>
</defs>
</svg>
