<svg width="52" height="52" viewBox="0 0 52 52" fill="none" xmlns="http://www.w3.org/2000/svg">
<g filter="url(#filter0_d_2171_1137)">
<rect x="4" y="2" width="44" height="44" rx="10" fill="url(#paint0_linear_2171_1137)"/>
<rect x="4.5" y="2.5" width="43" height="43" rx="9.5" stroke="black" stroke-opacity="0.08"/>
<path d="M24.2483 14.55C25.7158 13.8007 27.3511 13.4408 28.9976 13.5045C30.6441 13.5683 32.2466 14.0537 33.6518 14.9143C35.057 15.7748 36.2177 16.9817 37.0228 18.4194C37.8279 19.857 38.2505 21.4773 38.25 23.125C38.25 23.3571 38.3422 23.5796 38.5063 23.7437C38.6704 23.9078 38.8929 24 39.125 24C39.3571 24 39.5796 23.9078 39.7437 23.7437C39.9078 23.5796 40 23.3571 40 23.125C40 20.1082 38.8016 17.2149 36.6683 15.0817C34.5351 12.9484 31.6418 11.75 28.625 11.75C25.6082 11.75 22.7149 12.9484 20.5817 15.0817C18.4484 17.2149 17.25 20.1082 17.25 23.125C17.2497 24.4228 17.5381 25.7045 18.0943 26.8771C18.6505 28.0497 19.4606 29.0839 20.4659 29.9048C21.4712 30.7256 22.6465 31.3125 23.9066 31.623C25.1667 31.9335 26.4802 31.9598 27.7518 31.7C26.2842 32.4493 24.6489 32.8092 23.0024 32.7455C21.3559 32.6817 19.7534 32.1963 18.3482 31.3357C16.943 30.4752 15.7823 29.2683 14.9772 27.8306C14.1721 26.393 13.7495 24.7727 13.75 23.125C13.75 22.8929 13.6578 22.6704 13.4937 22.5063C13.3296 22.3422 13.1071 22.25 12.875 22.25C12.6429 22.25 12.4204 22.3422 12.2563 22.5063C12.0922 22.6704 12 22.8929 12 23.125C12 26.1418 13.1984 29.0351 15.3317 31.1683C17.4649 33.3016 20.3582 34.5 23.375 34.5C26.3918 34.5 29.2851 33.3016 31.4183 31.1683C33.5516 29.0351 34.75 26.1418 34.75 23.125C34.7503 21.8272 34.4619 20.5455 33.9057 19.3729C33.3495 18.2003 32.5394 17.1661 31.5341 16.3452C30.5288 15.5244 29.3535 14.9375 28.0934 14.627C26.8333 14.3165 25.5198 14.2902 24.2483 14.55ZM29.5 23.125C29.5 24.0533 29.1313 24.9435 28.4749 25.5999C27.8185 26.2563 26.9283 26.625 26 26.625C25.0717 26.625 24.1815 26.2563 23.5251 25.5999C22.8687 24.9435 22.5 24.0533 22.5 23.125C22.5 22.1967 22.8687 21.3065 23.5251 20.6501C24.1815 19.9937 25.0717 19.625 26 19.625C26.9283 19.625 27.8185 19.9937 28.4749 20.6501C29.1313 21.3065 29.5 22.1967 29.5 23.125Z" fill="white"/>
</g>
<defs>
<filter id="filter0_d_2171_1137" x="0" y="0" width="52" height="52" filterUnits="userSpaceOnUse" color-interpolation-filters="sRGB">
<feFlood flood-opacity="0" result="BackgroundImageFix"/>
<feColorMatrix in="SourceAlpha" type="matrix" values="0 0 0 0 0 0 0 0 0 0 0 0 0 0 0 0 0 0 127 0" result="hardAlpha"/>
<feOffset dy="2"/>
<feGaussianBlur stdDeviation="2"/>
<feComposite in2="hardAlpha" operator="out"/>
<feColorMatrix type="matrix" values="0 0 0 0 0 0 0 0 0 0 0 0 0 0 0 0 0 0 0.16 0"/>
<feBlend mode="normal" in2="BackgroundImageFix" result="effect1_dropShadow_2171_1137"/>
<feBlend mode="normal" in="SourceGraphic" in2="effect1_dropShadow_2171_1137" result="shape"/>
</filter>
<linearGradient id="paint0_linear_2171_1137" x1="26" y1="2" x2="26" y2="46" gradientUnits="userSpaceOnUse">
<stop offset="0.130208" stop-color="#56CCF2"/>
<stop offset="1" stop-color="#2D9CDB"/>
</linearGradient>
</defs>
</svg>
