<svg width="330" height="146" viewBox="0 0 330 146" fill="none" xmlns="http://www.w3.org/2000/svg">
<g filter="url(#filter0_d_2255_126)">
<g clip-path="url(#clip0_2255_126)">
<rect x="10" y="90" width="310" height="42" rx="8" fill="white"/>
<circle cx="110" cy="113" r="10" fill="#36B24D"/>
<path d="M124.5 111L127 114L129.5 111" stroke="black" stroke-linecap="round"/>
<path d="M179 111L181.5 114L184 111" stroke="black" stroke-linecap="round"/>
<path d="M260 111L262.5 114L265 111" stroke="black" stroke-linecap="round"/>
<line x1="155" y1="107" x2="171" y2="107" stroke="#666666" stroke-width="2" stroke-linecap="round"/>
<line x1="155" y1="115" x2="171" y2="115" stroke="#666666" stroke-width="2" stroke-linecap="round"/>
<line x1="159" y1="111" x2="167" y2="111" stroke="#666666" stroke-width="2" stroke-linecap="round"/>
<line x1="159" y1="119" x2="167" y2="119" stroke="#666666" stroke-width="2" stroke-linecap="round"/>
<path d="M204.771 108.047H206.397L209.118 115.539L211.832 108.047H213.466L209.768 118H208.462L204.771 108.047ZM203.95 108.047H205.543L205.83 114.931V118H203.95V108.047ZM212.687 108.047H214.286V118H212.406V114.931L212.687 108.047ZM219.386 118.137C218.825 118.137 218.322 118.046 217.875 117.863C217.428 117.681 217.048 117.428 216.733 117.104C216.424 116.776 216.184 116.396 216.016 115.963C215.852 115.525 215.77 115.056 215.77 114.555V114.281C215.77 113.712 215.852 113.194 216.016 112.729C216.18 112.26 216.412 111.857 216.713 111.52C217.014 111.182 217.374 110.923 217.793 110.74C218.212 110.558 218.675 110.467 219.181 110.467C219.705 110.467 220.167 110.556 220.568 110.733C220.969 110.907 221.304 111.153 221.573 111.472C221.842 111.791 222.045 112.174 222.182 112.62C222.318 113.062 222.387 113.552 222.387 114.09V114.849H216.59V113.604H220.609V113.468C220.6 113.181 220.546 112.919 220.445 112.682C220.345 112.44 220.19 112.249 219.98 112.107C219.771 111.962 219.5 111.889 219.167 111.889C218.898 111.889 218.663 111.948 218.463 112.066C218.267 112.18 218.103 112.344 217.971 112.559C217.843 112.768 217.747 113.019 217.684 113.311C217.62 113.602 217.588 113.926 217.588 114.281V114.555C217.588 114.865 217.629 115.152 217.711 115.416C217.798 115.68 217.923 115.91 218.087 116.106C218.256 116.298 218.456 116.448 218.688 116.558C218.925 116.662 219.194 116.715 219.495 116.715C219.873 116.715 220.215 116.642 220.521 116.496C220.83 116.346 221.099 116.125 221.327 115.833L222.236 116.776C222.081 117.004 221.872 117.223 221.607 117.433C221.348 117.642 221.033 117.813 220.664 117.945C220.295 118.073 219.869 118.137 219.386 118.137ZM228.033 116.428V107.5H229.852V118H228.211L228.033 116.428ZM223.282 114.391V114.247C223.282 113.682 223.346 113.169 223.474 112.709C223.606 112.244 223.797 111.845 224.048 111.513C224.299 111.18 224.602 110.923 224.957 110.74C225.317 110.558 225.725 110.467 226.181 110.467C226.623 110.467 227.008 110.556 227.336 110.733C227.669 110.911 227.951 111.164 228.184 111.492C228.421 111.82 228.61 112.21 228.751 112.661C228.892 113.108 228.995 113.6 229.059 114.138V114.527C228.995 115.051 228.892 115.532 228.751 115.97C228.61 116.407 228.421 116.79 228.184 117.118C227.951 117.442 227.669 117.692 227.336 117.87C227.003 118.048 226.614 118.137 226.167 118.137C225.716 118.137 225.31 118.043 224.95 117.856C224.595 117.67 224.292 117.408 224.041 117.07C223.795 116.733 223.606 116.337 223.474 115.881C223.346 115.425 223.282 114.928 223.282 114.391ZM225.094 114.247V114.391C225.094 114.71 225.121 115.008 225.176 115.286C225.23 115.564 225.319 115.81 225.442 116.024C225.565 116.234 225.723 116.398 225.914 116.517C226.11 116.635 226.347 116.694 226.625 116.694C226.98 116.694 227.272 116.617 227.5 116.462C227.732 116.302 227.912 116.086 228.04 115.812C228.168 115.535 228.25 115.222 228.286 114.876V113.803C228.268 113.529 228.22 113.276 228.143 113.044C228.07 112.812 227.965 112.611 227.828 112.442C227.696 112.274 227.532 112.142 227.336 112.046C227.14 111.95 226.908 111.902 226.639 111.902C226.361 111.902 226.124 111.964 225.928 112.087C225.732 112.205 225.572 112.372 225.449 112.586C225.326 112.8 225.235 113.049 225.176 113.331C225.121 113.614 225.094 113.919 225.094 114.247ZM233.399 110.604V118H231.588V110.604H233.399ZM231.465 108.669C231.465 108.4 231.556 108.177 231.738 107.999C231.925 107.821 232.176 107.732 232.49 107.732C232.805 107.732 233.053 107.821 233.235 107.999C233.422 108.177 233.516 108.4 233.516 108.669C233.516 108.933 233.422 109.154 233.235 109.332C233.053 109.51 232.805 109.599 232.49 109.599C232.176 109.599 231.925 109.51 231.738 109.332C231.556 109.154 231.465 108.933 231.465 108.669ZM239.524 116.243V110.604H241.343V118H239.634L239.524 116.243ZM239.757 114.712L240.317 114.698C240.317 115.195 240.263 115.653 240.153 116.072C240.044 116.492 239.873 116.856 239.641 117.166C239.413 117.471 239.123 117.711 238.772 117.884C238.422 118.052 238.007 118.137 237.528 118.137C237.164 118.137 236.831 118.087 236.53 117.986C236.229 117.882 235.97 117.72 235.751 117.501C235.537 117.278 235.37 116.993 235.252 116.646C235.133 116.296 235.074 115.874 235.074 115.382V110.604H236.879V115.396C236.879 115.642 236.906 115.847 236.961 116.011C237.02 116.175 237.1 116.309 237.2 116.414C237.305 116.514 237.426 116.587 237.562 116.633C237.704 116.674 237.854 116.694 238.014 116.694C238.451 116.694 238.795 116.608 239.046 116.435C239.301 116.257 239.483 116.02 239.593 115.724C239.702 115.423 239.757 115.086 239.757 114.712ZM244.74 112.121V118H242.936V110.604H244.638L244.74 112.121ZM244.474 114.035H243.92C243.92 113.52 243.981 113.046 244.104 112.613C244.232 112.18 244.419 111.804 244.665 111.485C244.911 111.162 245.214 110.911 245.574 110.733C245.939 110.556 246.36 110.467 246.839 110.467C247.172 110.467 247.477 110.517 247.755 110.617C248.033 110.713 248.272 110.866 248.473 111.075C248.678 111.28 248.835 111.549 248.944 111.882C249.054 112.21 249.108 112.604 249.108 113.064V118H247.304V113.249C247.304 112.903 247.254 112.632 247.153 112.436C247.058 112.24 246.919 112.103 246.736 112.025C246.554 111.943 246.335 111.902 246.08 111.902C245.798 111.902 245.554 111.959 245.349 112.073C245.148 112.183 244.982 112.335 244.85 112.531C244.722 112.727 244.626 112.953 244.562 113.208C244.503 113.463 244.474 113.739 244.474 114.035ZM248.972 113.7L248.227 113.837C248.231 113.372 248.295 112.937 248.418 112.531C248.541 112.121 248.721 111.763 248.958 111.458C249.2 111.148 249.498 110.907 249.854 110.733C250.214 110.556 250.628 110.467 251.098 110.467C251.462 110.467 251.79 110.519 252.082 110.624C252.378 110.724 252.631 110.886 252.841 111.109C253.05 111.328 253.21 111.613 253.319 111.964C253.433 112.315 253.49 112.743 253.49 113.249V118H251.672V113.242C251.672 112.882 251.622 112.606 251.521 112.415C251.426 112.224 251.287 112.091 251.104 112.019C250.922 111.941 250.708 111.902 250.462 111.902C250.211 111.902 249.993 111.95 249.806 112.046C249.623 112.137 249.468 112.265 249.341 112.429C249.218 112.593 249.124 112.784 249.061 113.003C249.001 113.217 248.972 113.45 248.972 113.7Z" fill="#666666"/>
<rect x="141" y="91" width="1" height="42" fill="black" fill-opacity="0.05"/>
<rect x="274" y="91" width="1" height="42" fill="black" fill-opacity="0.05"/>
<rect x="193" y="91" width="1" height="42" fill="black" fill-opacity="0.05"/>
<rect x="88" y="91" width="1" height="42" fill="black" fill-opacity="0.05"/>
<path d="M25 105C25 104.448 25.4477 104 26 104H36C36.5523 104 37 104.448 37 105V109H31C30.4477 109 30 109.448 30 110V116H26C25.4477 116 25 115.552 25 115V105Z" fill="#666666"/>
<path d="M32 111L42 111V121H32L32 111Z" stroke="#C5C5C5" stroke-width="2"/>
<mask id="path-18-inside-1_2255_126" fill="white">
<rect x="57" y="104" width="12" height="12" rx="1"/>
</mask>
<rect x="57" y="104" width="12" height="12" rx="1" stroke="#C5C5C5" stroke-width="4" mask="url(#path-18-inside-1_2255_126)"/>
<rect x="63" y="110" width="12" height="12" rx="1" fill="#666666"/>
<path fill-rule="evenodd" clip-rule="evenodd" d="M289.925 113.832V109.505C289.925 108.4 290.821 107.505 291.925 107.505H295.442C295.041 104.865 292.761 102.842 290.009 102.842C286.974 102.842 284.514 105.303 284.514 108.337C284.514 111.344 286.929 113.787 289.925 113.832ZM289.925 115.832C285.825 115.787 282.514 112.449 282.514 108.337C282.514 104.198 285.87 100.842 290.009 100.842C293.867 100.842 297.045 103.757 297.459 107.505H302C303.104 107.505 304 108.4 304 109.505V119.579C304 120.684 303.104 121.579 302 121.579H291.925C290.821 121.579 289.925 120.684 289.925 119.579V115.832ZM291.925 115.585V119.579H302V109.505H297.414C296.953 112.455 294.77 114.835 291.925 115.585ZM295.38 109.505H291.925V113.489C293.661 112.844 294.982 111.346 295.38 109.505Z" fill="#666666"/>
</g>
</g>
<g filter="url(#filter1_d_2255_126)">
<path d="M10 14C10 9.58172 13.5817 6 18 6H174C178.418 6 182 9.58172 182 14V69C182 73.4183 178.418 77 174 77H123.042C121.082 77 119.191 77.719 117.727 79.0207L112.329 83.8189C111.571 84.4925 110.429 84.4925 109.671 83.8189L104.273 79.0207C102.809 77.719 100.918 77 98.9584 77H18C13.5817 77 10 73.4183 10 69V14Z" fill="white"/>
</g>
<path opacity="0.8" d="M137.723 58.3023C137.723 62.9163 133.992 66.6512 129.396 66.6512C124.8 66.6512 121.068 62.9163 121.068 58.3023C121.068 53.6883 124.8 49.9535 129.396 49.9535C133.992 49.9535 137.723 53.6883 137.723 58.3023Z" fill="#36B24D" stroke="#36B24D" stroke-width="3"/>
<path opacity="0.8" d="M170.779 58.3023C170.779 62.9163 167.048 66.6512 162.452 66.6512C157.856 66.6512 154.125 62.9163 154.125 58.3023C154.125 53.6883 157.856 49.9535 162.452 49.9535C167.048 49.9535 170.779 53.6883 170.779 58.3023Z" fill="#1C7ED6" stroke="#1C7ED6" stroke-width="3"/>
<path opacity="0.8" d="M104.668 58.3023C104.668 62.9163 100.936 66.6512 96.3401 66.6512C91.7441 66.6512 88.0127 62.9163 88.0127 58.3023C88.0127 53.6883 91.7441 49.9535 96.3401 49.9535C100.936 49.9535 104.668 53.6883 104.668 58.3023Z" fill="#FF9433" stroke="#FF9433" stroke-width="3"/>
<path opacity="0.8" d="M170.779 25.1744C170.779 29.7884 167.048 33.5232 162.452 33.5232C157.856 33.5232 154.125 29.7884 154.125 25.1744C154.125 20.5604 157.856 16.8256 162.452 16.8256C167.048 16.8256 170.779 20.5604 170.779 25.1744Z" fill="#333333" stroke="#333333" stroke-width="3"/>
<path opacity="0.8" d="M137.723 25.1744C137.723 29.7884 133.992 33.5232 129.396 33.5232C124.8 33.5232 121.068 29.7884 121.068 25.1744C121.068 20.5604 124.8 16.8256 129.396 16.8256C133.992 16.8256 137.723 20.5604 137.723 25.1744Z" fill="#555555" stroke="#555555" stroke-width="3"/>
<path opacity="0.8" d="M104.668 25.1744C104.668 29.7884 100.936 33.5232 96.3401 33.5232C91.7441 33.5232 88.0127 29.7884 88.0127 25.1744C88.0127 20.5604 91.7441 16.8256 96.3401 16.8256C100.936 16.8256 104.668 20.5604 104.668 25.1744Z" fill="#777777" stroke="#777777" stroke-width="3"/>
<path opacity="0.8" d="M71.6119 25.1744C71.6119 29.7884 67.8805 33.5232 63.2844 33.5232C58.6884 33.5232 54.957 29.7884 54.957 25.1744C54.957 20.5604 58.6884 16.8256 63.2844 16.8256C67.8805 16.8256 71.6119 20.5604 71.6119 25.1744Z" fill="#999999" stroke="#999999" stroke-width="3"/>
<path opacity="0.8" d="M38.5557 25.1744C38.5557 29.7884 34.8243 33.5232 30.2283 33.5232C25.6323 33.5232 21.9009 29.7884 21.9009 25.1744C21.9009 20.5604 25.6323 16.8256 30.2283 16.8256C34.8243 16.8256 38.5557 20.5604 38.5557 25.1744Z" fill="#CCCCCC" stroke="#CCCCCC" stroke-width="3"/>
<path opacity="0.8" d="M38.5557 58.3023C38.5557 62.9163 34.8243 66.6512 30.2283 66.6512C25.6323 66.6512 21.9009 62.9163 21.9009 58.3023C21.9009 53.6883 25.6323 49.9535 30.2283 49.9535C34.8243 49.9535 38.5557 53.6883 38.5557 58.3023Z" fill="#7746F1" stroke="#7746F1" stroke-width="3"/>
<path opacity="0.8" d="M71.6119 58.3023C71.6119 62.9163 67.8805 66.6512 63.2844 66.6512C58.6884 66.6512 54.957 62.9163 54.957 58.3023C54.957 53.6883 58.6884 49.9535 63.2844 49.9535C67.8805 49.9535 71.6119 53.6883 71.6119 58.3023Z" fill="#FF2133" stroke="#FF2133" stroke-width="3"/>
<defs>
<filter id="filter0_d_2255_126" x="0" y="84" width="330" height="62" filterUnits="userSpaceOnUse" color-interpolation-filters="sRGB">
<feFlood flood-opacity="0" result="BackgroundImageFix"/>
<feColorMatrix in="SourceAlpha" type="matrix" values="0 0 0 0 0 0 0 0 0 0 0 0 0 0 0 0 0 0 127 0" result="hardAlpha"/>
<feOffset dy="4"/>
<feGaussianBlur stdDeviation="5"/>
<feComposite in2="hardAlpha" operator="out"/>
<feColorMatrix type="matrix" values="0 0 0 0 0 0 0 0 0 0 0 0 0 0 0 0 0 0 0.08 0"/>
<feBlend mode="normal" in2="BackgroundImageFix" result="effect1_dropShadow_2255_126"/>
<feBlend mode="normal" in="SourceGraphic" in2="effect1_dropShadow_2255_126" result="shape"/>
</filter>
<filter id="filter1_d_2255_126" x="0" y="0" width="192" height="98.3241" filterUnits="userSpaceOnUse" color-interpolation-filters="sRGB">
<feFlood flood-opacity="0" result="BackgroundImageFix"/>
<feColorMatrix in="SourceAlpha" type="matrix" values="0 0 0 0 0 0 0 0 0 0 0 0 0 0 0 0 0 0 127 0" result="hardAlpha"/>
<feOffset dy="4"/>
<feGaussianBlur stdDeviation="5"/>
<feComposite in2="hardAlpha" operator="out"/>
<feColorMatrix type="matrix" values="0 0 0 0 0 0 0 0 0 0 0 0 0 0 0 0 0 0 0.08 0"/>
<feBlend mode="normal" in2="BackgroundImageFix" result="effect1_dropShadow_2255_126"/>
<feBlend mode="normal" in="SourceGraphic" in2="effect1_dropShadow_2255_126" result="shape"/>
</filter>
<clipPath id="clip0_2255_126">
<rect x="10" y="90" width="310" height="42" rx="8" fill="white"/>
</clipPath>
</defs>
</svg>
