<svg width="333" height="156" viewBox="0 0 333 156" fill="none" xmlns="http://www.w3.org/2000/svg">
<g filter="url(#filter0_d_2257_127)">
<rect x="10" y="6" width="201" height="136" rx="8" fill="white"/>
<path d="M65.5521 48.3896L76.4097 39.1078L87.2672 48.3896L76.4097 57.6714L65.5521 48.3896Z" stroke="#333333" stroke-width="2"/>
<rect x="99.5464" y="40.5585" width="24.5639" height="15.6623" rx="7.83117" stroke="#333333" stroke-width="2"/>
<rect x="29.5947" y="40.5585" width="22.793" height="15.6623" rx="1" stroke="#333333" stroke-width="2"/>
<path d="M64.8604 112.496C64.6674 111.854 65.1479 111.208 65.818 111.208H87.0017C87.6719 111.208 88.1523 111.854 87.9593 112.496L88.9169 112.784L87.9593 112.496L83.8497 126.158C83.7226 126.581 83.3334 126.87 82.8921 126.87H69.9276C69.4863 126.87 69.0971 126.581 68.97 126.158L64.8604 112.496Z" stroke="#333333" stroke-width="2"/>
<path d="M135.85 115.475C135.85 114.978 136.216 114.556 136.709 114.485L157.502 111.523C158.104 111.437 158.643 111.905 158.643 112.513V125.87C158.643 126.422 158.195 126.87 157.643 126.87H136.85C136.298 126.87 135.85 126.422 135.85 125.87V115.475Z" stroke="#333333" stroke-width="2"/>
<path d="M174.029 41.3363C174.132 40.8813 174.537 40.5585 175.004 40.5585H193.44C194.082 40.5585 194.558 41.1547 194.415 41.7807L191.302 55.443C191.198 55.898 190.794 56.2208 190.327 56.2208H171.89C171.248 56.2208 170.773 55.6245 170.915 54.9986L174.029 41.3363Z" stroke="#333333" stroke-width="2"/>
<path d="M135.85 41.5522C135.85 41.0032 136.295 40.5571 136.85 40.5571H157.643C158.197 40.5571 158.643 41.0041 158.643 41.5551V54.6163C156.358 53.4308 154.459 52.9999 152.745 53.0589C150.704 53.1291 149.045 53.8977 147.523 54.6026L147.488 54.6189C145.928 55.342 144.469 56.0145 142.617 56.1825C140.895 56.3387 138.752 56.0617 135.851 54.8056C135.852 52.5124 135.851 45.1366 135.85 41.5522Z" stroke="#333333" stroke-width="2"/>
<path fill-rule="evenodd" clip-rule="evenodd" d="M189.52 111.325H183.78V112.623H189.52V111.325ZM189.52 114.623H183.78V126.753H189.52V114.623ZM181.78 112.623V111.325H175.811V112.623H181.78ZM175.811 114.623H181.78V126.753H175.811V114.623ZM173.811 114.623V112.623V111.325C173.811 110.22 174.706 109.325 175.811 109.325H189.52C190.624 109.325 191.52 110.22 191.52 111.325V126.753C191.52 127.858 190.624 128.753 189.52 128.753H175.811C174.706 128.753 173.811 127.858 173.811 126.753V114.623Z" fill="#333333"/>
<path fill-rule="evenodd" clip-rule="evenodd" d="M51.3877 77.7662L34.1366 77.7662V79.0649H51.3877V77.7662ZM51.3877 81.0649H34.1366L34.1366 91.4286L51.3877 91.4286L51.3877 81.0649ZM32.1366 79.0649V77.7662L30.5947 77.7662L30.5947 79.0649H32.1366ZM30.5947 81.0649H32.1366V91.4286H30.5947L30.5947 81.0649ZM28.5947 81.0649V79.0649V77.7662C28.5947 76.6617 29.4902 75.7662 30.5947 75.7662H51.3877C52.4922 75.7662 53.3877 76.6617 53.3877 77.7662V91.4286C53.3877 92.5331 52.4922 93.4286 51.3877 93.4286H30.5947C29.4902 93.4286 28.5947 92.5331 28.5947 91.4286V81.0649Z" fill="#333333"/>
<rect x="65.0132" y="76.7662" width="22.793" height="15.6623" rx="1" stroke="#333333" stroke-width="2"/>
<line x1="70.3262" y1="76.6494" x2="70.3262" y2="92.5455" stroke="#333333" stroke-width="2"/>
<line x1="82.7227" y1="76.6494" x2="82.7227" y2="92.5455" stroke="#333333" stroke-width="2"/>
<path d="M100.432 75.1169C100.432 74.5647 100.879 74.1169 101.432 74.1169H122.225C122.777 74.1169 123.225 74.5647 123.225 75.1169V87.8509C123.225 88.2101 123.032 88.5418 122.72 88.7197L112.323 94.6446C112.016 94.8195 111.64 94.8195 111.333 94.6446L100.937 88.7197C100.624 88.5418 100.432 88.2101 100.432 87.8509V75.1169Z" stroke="#333333" stroke-width="2"/>
<path d="M138.722 76.7727C138.728 76.7685 138.736 76.7662 138.743 76.7662H160.014C154.779 80.6612 154.779 88.5336 160.014 92.4286H138.743C138.736 92.4286 138.728 92.4263 138.722 92.4221C133.121 88.7089 133.121 80.4859 138.722 76.7727Z" stroke="#333333" stroke-width="2"/>
<path fill-rule="evenodd" clip-rule="evenodd" d="M185.596 77.5294L176.91 77.5256L176.91 75.5256L189.307 75.531L189.307 75.7731C192.73 75.7735 195.504 79.7272 195.504 84.6043C195.504 89.4816 192.729 93.4355 189.306 93.4355C189.214 93.4355 189.123 93.4326 189.032 93.427L176.91 93.4217L176.91 91.4217L185.369 91.4254C183.988 89.8057 183.108 87.3515 183.108 84.6043C183.108 81.7095 184.085 79.14 185.596 77.5294ZM189.307 91.4355L189.307 91.4271L189.108 91.427C188.276 91.3563 187.359 90.8376 186.56 89.6999C185.702 88.4771 185.108 86.6818 185.108 84.6043C185.108 82.5268 185.702 80.7315 186.56 79.5087C187.423 78.2799 188.424 77.7731 189.306 77.7731C190.188 77.7731 191.189 78.2799 192.052 79.5087C192.91 80.7315 193.504 82.5268 193.504 84.6043C193.504 86.6818 192.91 88.4771 192.052 89.6999C191.19 90.9285 190.189 91.4353 189.307 91.4355ZM176.91 93.4217L176.91 93.5455C172.717 93.5455 169.711 89.2936 169.711 84.5975C169.711 79.9013 172.717 75.6494 176.91 75.6494L176.91 77.5256L176.91 77.6494C174.256 77.6494 171.711 80.5144 171.711 84.5975C171.711 88.6805 174.256 91.5455 176.91 91.5455L176.91 93.4217Z" fill="#333333"/>
<path d="M30.2906 32.678V22.4962H36.3957V23.5899H31.5235V27.0303H35.9383V28.124H31.5235V32.678H30.2906ZM39.5216 22.4962V32.678H38.3483V22.4962H39.5216ZM44.7728 32.8371C44.0834 32.8371 43.4785 32.673 42.9582 32.3449C42.4411 32.0168 42.0368 31.5577 41.7451 30.9678C41.4568 30.3778 41.3126 29.6884 41.3126 28.8996C41.3126 28.1041 41.4568 27.4097 41.7451 26.8165C42.0368 26.2232 42.4411 25.7625 42.9582 25.4344C43.4785 25.1062 44.0834 24.9422 44.7728 24.9422C45.4622 24.9422 46.0654 25.1062 46.5825 25.4344C47.1028 25.7625 47.5072 26.2232 47.7955 26.8165C48.0872 27.4097 48.233 28.1041 48.233 28.8996C48.233 29.6884 48.0872 30.3778 47.7955 30.9678C47.5072 31.5577 47.1028 32.0168 46.5825 32.3449C46.0654 32.673 45.4622 32.8371 44.7728 32.8371ZM44.7728 31.7831C45.2965 31.7831 45.7274 31.6489 46.0654 31.3804C46.4035 31.1119 46.6537 30.7589 46.8161 30.3214C46.9785 29.8839 47.0597 29.41 47.0597 28.8996C47.0597 28.3892 46.9785 27.9135 46.8161 27.4727C46.6537 27.0319 46.4035 26.6756 46.0654 26.4038C45.7274 26.1321 45.2965 25.9962 44.7728 25.9962C44.2491 25.9962 43.8183 26.1321 43.4802 26.4038C43.1421 26.6756 42.8919 27.0319 42.7295 27.4727C42.5671 27.9135 42.4859 28.3892 42.4859 28.8996C42.4859 29.41 42.5671 29.8839 42.7295 30.3214C42.8919 30.7589 43.1421 31.1119 43.4802 31.3804C43.8183 31.6489 44.2491 31.7831 44.7728 31.7831ZM51.4944 32.678L49.1677 25.0416H50.4007L52.0512 30.8882H52.1308L53.7615 25.0416H55.0143L56.6251 30.8683H56.7046L58.3552 25.0416H59.5882L57.2615 32.678H56.108L54.4376 26.8115H54.3183L52.6478 32.678H51.4944ZM73.4291 25.678H72.1961C72.1232 25.3233 71.9956 25.0118 71.8133 24.7433C71.6343 24.4749 71.4156 24.2495 71.157 24.0672C70.9018 23.8816 70.6185 23.7424 70.3069 23.6496C69.9954 23.5568 69.6705 23.5104 69.3325 23.5104C68.716 23.5104 68.1575 23.6661 67.657 23.9777C67.1599 24.2892 66.7638 24.7483 66.4688 25.3548C66.1772 25.9614 66.0313 26.7054 66.0313 27.5871C66.0313 28.4687 66.1772 29.2128 66.4688 29.8193C66.7638 30.4258 67.1599 30.8849 67.657 31.1964C68.1575 31.508 68.716 31.6638 69.3325 31.6638C69.6705 31.6638 69.9954 31.6174 70.3069 31.5246C70.6185 31.4318 70.9018 31.2942 71.157 31.1119C71.4156 30.9263 71.6343 30.6993 71.8133 30.4308C71.9956 30.159 72.1232 29.8475 72.1961 29.4962H73.4291C73.3363 30.0165 73.1672 30.4822 72.922 30.8932C72.6767 31.3042 72.3718 31.6538 72.0072 31.9422C71.6426 32.2272 71.2333 32.4443 70.7792 32.5935C70.3285 32.7426 69.8462 32.8172 69.3325 32.8172C68.4641 32.8172 67.6919 32.6051 67.0157 32.1808C66.3396 31.7566 65.8076 31.1534 65.4198 30.3712C65.032 29.589 64.8382 28.6609 64.8382 27.5871C64.8382 26.5132 65.032 25.5852 65.4198 24.803C65.8076 24.0208 66.3396 23.4176 67.0157 22.9933C67.6919 22.5691 68.4641 22.357 69.3325 22.357C69.8462 22.357 70.3285 22.4315 70.7792 22.5807C71.2333 22.7298 71.6426 22.9486 72.0072 23.2369C72.3718 23.522 72.6767 23.87 72.922 24.281C73.1672 24.6886 73.3363 25.1543 73.4291 25.678ZM76.4356 28.0842V32.678H75.2623V22.4962H76.4356V26.2348H76.5351C76.714 25.8404 76.9825 25.5272 77.3405 25.2952C77.7017 25.0598 78.1823 24.9422 78.7822 24.9422C79.3026 24.9422 79.7583 25.0466 80.1494 25.2554C80.5405 25.4609 80.8438 25.7774 81.0592 26.205C81.278 26.6292 81.3873 27.1695 81.3873 27.8257V32.678H80.214V27.9053C80.214 27.2987 80.0566 26.8297 79.7417 26.4983C79.4302 26.1635 78.9977 25.9962 78.4442 25.9962C78.0597 25.9962 77.715 26.0774 77.4101 26.2398C77.1085 26.4022 76.8698 26.6392 76.6942 26.9507C76.5218 27.2623 76.4356 27.6401 76.4356 28.0842ZM85.781 32.857C85.2971 32.857 84.8579 32.7658 84.4635 32.5835C84.0691 32.3979 83.7559 32.1311 83.5239 31.7831C83.2919 31.4318 83.1759 31.0075 83.1759 30.5104C83.1759 30.0729 83.262 29.7182 83.4344 29.4464C83.6067 29.1713 83.8371 28.9559 84.1254 28.8001C84.4138 28.6444 84.732 28.5284 85.08 28.4521C85.4313 28.3726 85.7843 28.3096 86.1389 28.2632C86.603 28.2035 86.9791 28.1588 87.2675 28.129C87.5592 28.0958 87.7713 28.0411 87.9039 27.9649C88.0397 27.8887 88.1077 27.7561 88.1077 27.5672V27.5274C88.1077 27.0369 87.9735 26.6557 87.705 26.3839C87.4398 26.1122 87.0371 25.9763 86.4969 25.9763C85.9368 25.9763 85.4976 26.0989 85.1794 26.3442C84.8612 26.5894 84.6375 26.8513 84.5083 27.1297L83.3946 26.732C83.5935 26.2679 83.8586 25.9067 84.1901 25.6481C84.5248 25.3863 84.8894 25.204 85.2838 25.1013C85.6816 24.9952 86.0727 24.9422 86.4571 24.9422C86.7024 24.9422 86.9841 24.972 87.3023 25.0317C87.6238 25.088 87.9337 25.2057 88.232 25.3847C88.5336 25.5636 88.7838 25.8338 88.9827 26.195C89.1816 26.5563 89.281 27.0402 89.281 27.6467V32.678H88.1077V31.6439H88.048C87.9685 31.8096 87.8359 31.9869 87.6503 32.1758C87.4647 32.3648 87.2178 32.5255 86.9095 32.6581C86.6013 32.7907 86.2251 32.857 85.781 32.857ZM85.96 31.803C86.424 31.803 86.8151 31.7118 87.1333 31.5295C87.4548 31.3472 87.6967 31.1119 87.8591 30.8236C88.0248 30.5352 88.1077 30.232 88.1077 29.9138V28.8399C88.058 28.8996 87.9486 28.9543 87.7796 29.004C87.6138 29.0504 87.4216 29.0918 87.2029 29.1283C86.9874 29.1614 86.777 29.1912 86.5715 29.2178C86.3693 29.241 86.2052 29.2608 86.0793 29.2774C85.7744 29.3172 85.4893 29.3818 85.2242 29.4713C84.9623 29.5575 84.7502 29.6884 84.5878 29.8641C84.4287 30.0364 84.3492 30.2717 84.3492 30.57C84.3492 30.9777 84.5 31.2859 84.8016 31.4947C85.1065 31.7002 85.4926 31.803 85.96 31.803ZM91.4225 32.678V25.0416H92.556V26.195H92.6356C92.7748 25.8172 93.0267 25.5106 93.3912 25.2753C93.7558 25.04 94.1668 24.9223 94.6242 24.9223C94.7104 24.9223 94.8181 24.924 94.9474 24.9273C95.0766 24.9306 95.1744 24.9356 95.2407 24.9422V26.1354C95.2009 26.1254 95.1098 26.1105 94.9672 26.0906C94.828 26.0674 94.6805 26.0558 94.5248 26.0558C94.1536 26.0558 93.8221 26.1337 93.5305 26.2895C93.2421 26.4419 93.0134 26.6541 92.8444 26.9258C92.6787 27.1943 92.5958 27.5009 92.5958 27.8456V32.678H91.4225ZM100.431 25.0416V26.0359H96.4736V25.0416H100.431ZM97.627 23.2121H98.8003V30.4905C98.8003 30.8219 98.8484 31.0705 98.9445 31.2362C99.0439 31.3986 99.1699 31.508 99.3224 31.5643C99.4781 31.6174 99.6422 31.6439 99.8145 31.6439C99.9438 31.6439 100.05 31.6373 100.133 31.624C100.216 31.6074 100.282 31.5942 100.332 31.5842L100.57 32.6382C100.491 32.668 100.38 32.6979 100.237 32.7277C100.095 32.7608 99.914 32.7774 99.6952 32.7774C99.3638 32.7774 99.039 32.7062 98.7208 32.5636C98.4059 32.4211 98.1441 32.204 97.9353 31.9124C97.7298 31.6207 97.627 31.2528 97.627 30.8087V23.2121Z" fill="#666666"/>
<path d="M32.7019 111.208L48.6806 111.208C54.4954 114.804 54.4954 123.273 48.6806 126.87H32.7019L28.3009 119.554C28.11 119.237 28.11 118.841 28.3009 118.523L32.7019 111.208L31.8786 110.712L32.7019 111.208Z" stroke="#333333" stroke-width="2"/>
<path d="M103.247 111.692C103.428 111.392 103.753 111.208 104.104 111.208H119.552C119.903 111.208 120.228 111.392 120.409 111.692L124.518 118.523C124.709 118.841 124.709 119.237 124.518 119.554L120.409 126.386C120.228 126.686 119.903 126.87 119.552 126.87H104.104C103.753 126.87 103.428 126.686 103.247 126.386L99.1378 119.554C98.947 119.237 98.947 118.841 99.1378 118.523L103.247 111.692Z" stroke="#333333" stroke-width="2"/>
</g>
<g filter="url(#filter1_d_2257_127)">
<rect x="218" y="6" width="224" height="135" rx="8" fill="white"/>
<path fill-rule="evenodd" clip-rule="evenodd" d="M323.466 57.9615C321.809 57.9615 320.466 59.3047 320.466 60.9615V62.0769H319.412C318.307 62.0769 317.412 62.9724 317.412 64.0769V66.3077C317.412 67.4123 318.307 68.3077 319.412 68.3077H323.52C324.625 68.3077 325.52 67.4123 325.52 66.3077V64.0769C325.52 62.9724 324.625 62.0769 323.52 62.0769H322.466V60.9615C322.466 60.4093 322.914 59.9615 323.466 59.9615H342.778C343.33 59.9615 343.778 60.4093 343.778 60.9615V77.7308C343.778 78.2831 343.33 78.7308 342.778 78.7308H323.466C322.914 78.7308 322.466 78.2831 322.466 77.7308V76.6154H323.52C324.625 76.6154 325.52 75.72 325.52 74.6154V72.3846C325.52 71.2801 324.625 70.3846 323.52 70.3846L322.452 70.3846V68.3077H320.452V70.3846L319.412 70.3846C318.307 70.3846 317.412 71.2801 317.412 72.3846V74.6154C317.412 75.72 318.307 76.6154 319.412 76.6154H320.466V77.7308C320.466 79.3876 321.809 80.7308 323.466 80.7308H342.778C344.435 80.7308 345.778 79.3876 345.778 77.7308V60.9615C345.778 59.3047 344.435 57.9615 342.778 57.9615H323.466ZM319.412 74.6154V72.3846H323.52V74.6154H319.412ZM323.52 64.0769H319.412V66.3077L323.52 66.3077V64.0769Z" fill="#333333"/>
<path fill-rule="evenodd" clip-rule="evenodd" d="M239.339 59.9231H261.692V62.7769H239.339L239.339 59.9231V59.9231ZM237.339 64.7769V62.7769V59.9231C237.339 58.8185 238.235 57.9231 239.339 57.9231H261.692C262.797 57.9231 263.692 58.8185 263.692 59.9231V78.7692C263.692 79.8738 262.797 80.7692 261.692 80.7692H239.339C238.235 80.7692 237.339 79.8738 237.339 78.7692V64.7769ZM239.339 64.7769H261.692L261.692 78.7692L239.339 78.7692L239.339 64.7769Z" fill="#333333"/>
<path fill-rule="evenodd" clip-rule="evenodd" d="M278.882 60.9615C278.882 60.4093 279.33 59.9615 279.882 59.9615H293.566C293.944 59.9615 294.29 60.1754 294.46 60.514L295.762 63.1154H291.059H278.882V60.9615ZM278.869 65.1923H278.882V65.1154L291.059 65.1154H303.249L303.249 71.9423V78.7692H278.869V65.1923ZM276.882 64.8811V60.9615C276.882 59.3047 278.225 57.9615 279.882 57.9615H293.566C294.701 57.9615 295.74 58.603 296.248 59.6188L297.999 63.1154H303.249C304.353 63.1154 305.249 64.0108 305.249 65.1154V71.9423V78.7692C305.249 79.8738 304.353 80.7692 303.249 80.7692H278.869C277.764 80.7692 276.869 79.8738 276.869 78.7692V65.1154C276.869 65.0361 276.873 64.958 276.882 64.8811Z" fill="#333333"/>
<path fill-rule="evenodd" clip-rule="evenodd" d="M260.679 110.885C260.679 116.708 256.083 121.346 250.516 121.346C244.949 121.346 240.353 116.708 240.353 110.885C240.353 105.061 244.949 100.423 250.516 100.423C256.083 100.423 260.679 105.061 260.679 110.885ZM262.679 110.885C262.679 117.767 257.233 123.346 250.516 123.346C243.799 123.346 238.353 117.767 238.353 110.885C238.353 104.002 243.799 98.4231 250.516 98.4231C257.233 98.4231 262.679 104.002 262.679 110.885ZM250.516 119.192C254.994 119.192 258.625 115.473 258.625 110.885C258.625 106.296 254.994 102.577 250.516 102.577C246.038 102.577 242.407 106.296 242.407 110.885C242.407 115.473 246.038 119.192 250.516 119.192Z" fill="#333333"/>
<path fill-rule="evenodd" clip-rule="evenodd" d="M291.059 121.346C293.498 121.346 295.751 120.456 297.513 118.965L291.022 112.316L284.565 118.931C286.333 120.442 288.601 121.346 291.059 121.346ZM282.461 119.699L283.139 120.393L283.165 120.366C285.29 122.224 288.047 123.346 291.059 123.346C294.053 123.346 296.794 122.238 298.913 120.4L298.943 120.431L299.658 119.698L299.661 119.695L300.34 118.999L300.313 118.972C302.127 116.795 303.222 113.971 303.222 110.885C303.222 107.798 302.127 104.974 300.313 102.797L300.34 102.77L298.943 101.339L298.913 101.369C296.794 99.5313 294.053 98.4231 291.059 98.4231C288.047 98.4231 285.29 99.5451 283.165 101.403L283.139 101.376L282.46 102.071L282.456 102.075L281.742 102.807L281.771 102.838C279.978 105.009 278.896 107.817 278.896 110.885C278.896 113.952 279.978 116.76 281.771 118.932L281.742 118.962L282.456 119.693C282.457 119.695 282.459 119.697 282.461 119.699ZM283.178 117.491L289.625 110.885L283.178 104.278C281.754 106.073 280.896 108.368 280.896 110.885C280.896 113.401 281.754 115.696 283.178 117.491ZM291.022 109.453L284.565 102.838C286.333 101.327 288.601 100.423 291.059 100.423C293.498 100.423 295.751 101.313 297.513 102.804L291.022 109.453ZM292.419 110.885L298.907 104.237C300.351 106.038 301.222 108.349 301.222 110.885C301.222 113.42 300.351 115.731 298.907 117.532L292.419 110.885Z" fill="#333333"/>
<path fill-rule="evenodd" clip-rule="evenodd" d="M341.765 110.885C341.765 116.708 337.169 121.346 331.602 121.346C326.035 121.346 321.439 116.708 321.439 110.885C321.439 105.061 326.035 100.423 331.602 100.423C337.169 100.423 341.765 105.061 341.765 110.885ZM343.765 110.885C343.765 117.767 338.319 123.346 331.602 123.346C324.884 123.346 319.439 117.767 319.439 110.885C319.439 104.002 324.884 98.4231 331.602 98.4231C338.319 98.4231 343.765 104.002 343.765 110.885ZM328.534 105.654C328.534 105.102 328.086 104.654 327.534 104.654C326.982 104.654 326.534 105.102 326.534 105.654L326.534 116.115C326.534 116.668 326.982 117.115 327.534 117.115C328.086 117.115 328.534 116.668 328.534 116.115V111.923H334.643V116.115C334.643 116.668 335.09 117.115 335.643 117.115C336.195 117.115 336.643 116.668 336.643 116.115V105.654C336.643 105.102 336.195 104.654 335.643 104.654C335.09 104.654 334.643 105.102 334.643 105.654V109.923H328.534V105.654Z" fill="#333333"/>
<path d="M241.915 25.8182H243.148V32.5597C243.148 33.2557 242.984 33.8771 242.656 34.424C242.331 34.9676 241.872 35.3968 241.278 35.7116C240.685 36.0232 239.989 36.179 239.19 36.179C238.392 36.179 237.696 36.0232 237.102 35.7116C236.509 35.3968 236.048 34.9676 235.72 34.424C235.395 33.8771 235.233 33.2557 235.233 32.5597V25.8182H236.466V32.4602C236.466 32.9574 236.575 33.3999 236.794 33.7876C237.013 34.1721 237.324 34.4754 237.729 34.6974C238.136 34.9162 238.624 35.0256 239.19 35.0256C239.757 35.0256 240.244 34.9162 240.652 34.6974C241.06 34.4754 241.371 34.1721 241.587 33.7876C241.805 33.3999 241.915 32.9574 241.915 32.4602V25.8182ZM245.61 25.8182H247.081L250.542 34.2699H250.661L254.121 25.8182H255.593V36H254.439V28.2642H254.34L251.158 36H250.045L246.863 28.2642H246.763V36H245.61V25.8182ZM258.065 36V25.8182H259.298V34.9062H264.031V36H258.065ZM273.02 36H269.877V25.8182H273.159C274.146 25.8182 274.992 26.022 275.694 26.4297C276.397 26.834 276.935 27.4157 277.31 28.1747C277.685 28.9304 277.872 29.8352 277.872 30.8892C277.872 31.9498 277.683 32.8629 277.305 33.6286C276.927 34.3909 276.377 34.9775 275.654 35.3885C274.932 35.7962 274.054 36 273.02 36ZM271.11 34.9062H272.94C273.782 34.9062 274.48 34.7438 275.033 34.419C275.587 34.0942 275.999 33.6319 276.271 33.032C276.543 32.4321 276.679 31.7178 276.679 30.8892C276.679 30.0672 276.544 29.3596 276.276 28.7663C276.007 28.1697 275.606 27.7124 275.073 27.3942C274.539 27.0727 273.875 26.9119 273.079 26.9119H271.11V34.9062ZM279.781 36V28.3636H280.954V36H279.781ZM280.377 27.0909C280.149 27.0909 279.952 27.013 279.786 26.8572C279.623 26.7015 279.542 26.5142 279.542 26.2955C279.542 26.0767 279.623 25.8894 279.786 25.7337C279.952 25.5779 280.149 25.5 280.377 25.5C280.606 25.5 280.802 25.5779 280.964 25.7337C281.13 25.8894 281.213 26.0767 281.213 26.2955C281.213 26.5142 281.13 26.7015 280.964 26.8572C280.802 27.013 280.606 27.0909 280.377 27.0909ZM285.35 36.179C284.866 36.179 284.427 36.0878 284.033 35.9055C283.638 35.7199 283.325 35.4531 283.093 35.1051C282.861 34.7538 282.745 34.3295 282.745 33.8324C282.745 33.3949 282.831 33.0402 283.004 32.7685C283.176 32.4934 283.406 32.2779 283.695 32.1222C283.983 31.9664 284.301 31.8504 284.649 31.7741C285.001 31.6946 285.354 31.6316 285.708 31.5852C286.172 31.5256 286.548 31.4808 286.837 31.451C287.128 31.4179 287.341 31.3632 287.473 31.2869C287.609 31.2107 287.677 31.0781 287.677 30.8892V30.8494C287.677 30.3589 287.543 29.9777 287.274 29.706C287.009 29.4342 286.606 29.2983 286.066 29.2983C285.506 29.2983 285.067 29.4209 284.749 29.6662C284.431 29.9115 284.207 30.1733 284.078 30.4517L282.964 30.054C283.163 29.59 283.428 29.2287 283.759 28.9702C284.094 28.7083 284.459 28.526 284.853 28.4233C285.251 28.3172 285.642 28.2642 286.026 28.2642C286.272 28.2642 286.553 28.294 286.872 28.3537C287.193 28.41 287.503 28.5277 287.801 28.7067C288.103 28.8857 288.353 29.1558 288.552 29.517C288.751 29.8783 288.85 30.3622 288.85 30.9688V36H287.677V34.9659H287.617C287.538 35.1316 287.405 35.3089 287.22 35.4979C287.034 35.6868 286.787 35.8475 286.479 35.9801C286.171 36.1127 285.794 36.179 285.35 36.179ZM285.529 35.125C285.993 35.125 286.384 35.0339 286.703 34.8516C287.024 34.6693 287.266 34.4339 287.428 34.1456C287.594 33.8572 287.677 33.554 287.677 33.2358V32.1619C287.627 32.2216 287.518 32.2763 287.349 32.326C287.183 32.3724 286.991 32.4138 286.772 32.4503C286.557 32.4834 286.346 32.5133 286.141 32.5398C285.939 32.563 285.775 32.5829 285.649 32.5994C285.344 32.6392 285.059 32.7038 284.794 32.7933C284.532 32.8795 284.32 33.0104 284.157 33.1861C283.998 33.3584 283.919 33.5937 283.919 33.892C283.919 34.2997 284.069 34.608 284.371 34.8168C284.676 35.0223 285.062 35.125 285.529 35.125ZM294.074 39.0227C293.507 39.0227 293.02 38.9498 292.613 38.804C292.205 38.6615 291.865 38.4725 291.593 38.2372C291.325 38.0052 291.111 37.7566 290.952 37.4915L291.887 36.8352C291.993 36.9744 292.127 37.1335 292.289 37.3125C292.452 37.4948 292.674 37.6522 292.956 37.7848C293.241 37.9207 293.614 37.9886 294.074 37.9886C294.691 37.9886 295.199 37.8395 295.6 37.5412C296.002 37.2429 296.202 36.7756 296.202 36.1392V34.5881H296.103C296.016 34.7273 295.894 34.8996 295.735 35.1051C295.579 35.3073 295.354 35.4879 295.059 35.647C294.767 35.8028 294.373 35.8807 293.875 35.8807C293.259 35.8807 292.705 35.7348 292.215 35.4432C291.728 35.1515 291.342 34.7273 291.056 34.1705C290.775 33.6136 290.634 32.9375 290.634 32.142C290.634 31.3598 290.771 30.6787 291.047 30.0987C291.322 29.5154 291.704 29.0646 292.195 28.7464C292.685 28.425 293.252 28.2642 293.895 28.2642C294.392 28.2642 294.787 28.3471 295.078 28.5128C295.373 28.6752 295.599 28.8608 295.755 29.0696C295.914 29.2751 296.036 29.4441 296.123 29.5767H296.242V28.3636H297.375V36.2188C297.375 36.875 297.226 37.4086 296.928 37.8196C296.633 38.2339 296.235 38.5372 295.735 38.7294C295.238 38.925 294.684 39.0227 294.074 39.0227ZM294.034 34.8267C294.505 34.8267 294.903 34.719 295.228 34.5036C295.552 34.2881 295.799 33.9782 295.968 33.5739C296.137 33.1695 296.222 32.6856 296.222 32.1222C296.222 31.572 296.139 31.0864 295.973 30.6655C295.808 30.2446 295.562 29.9148 295.238 29.6761C294.913 29.4375 294.512 29.3182 294.034 29.3182C293.537 29.3182 293.123 29.4441 292.792 29.696C292.463 29.9479 292.217 30.286 292.051 30.7102C291.888 31.1345 291.807 31.6051 291.807 32.1222C291.807 32.6525 291.89 33.1214 292.056 33.5291C292.225 33.9335 292.473 34.2517 292.801 34.4837C293.133 34.7124 293.544 34.8267 294.034 34.8267ZM299.523 36V28.3636H300.657V29.517H300.736C300.875 29.1392 301.127 28.8326 301.492 28.5973C301.856 28.362 302.267 28.2443 302.725 28.2443C302.811 28.2443 302.919 28.246 303.048 28.2493C303.177 28.2526 303.275 28.2576 303.341 28.2642V29.4574C303.301 29.4474 303.21 29.4325 303.068 29.4126C302.929 29.3894 302.781 29.3778 302.625 29.3778C302.254 29.3778 301.923 29.4557 301.631 29.6115C301.343 29.764 301.114 29.9761 300.945 30.2479C300.779 30.5163 300.696 30.8229 300.696 31.1676V36H299.523ZM306.979 36.179C306.495 36.179 306.056 36.0878 305.662 35.9055C305.267 35.7199 304.954 35.4531 304.722 35.1051C304.49 34.7538 304.374 34.3295 304.374 33.8324C304.374 33.3949 304.46 33.0402 304.633 32.7685C304.805 32.4934 305.035 32.2779 305.324 32.1222C305.612 31.9664 305.93 31.8504 306.278 31.7741C306.63 31.6946 306.983 31.6316 307.337 31.5852C307.801 31.5256 308.177 31.4808 308.466 31.451C308.757 31.4179 308.97 31.3632 309.102 31.2869C309.238 31.2107 309.306 31.0781 309.306 30.8892V30.8494C309.306 30.3589 309.172 29.9777 308.903 29.706C308.638 29.4342 308.235 29.2983 307.695 29.2983C307.135 29.2983 306.696 29.4209 306.378 29.6662C306.059 29.9115 305.836 30.1733 305.706 30.4517L304.593 30.054C304.792 29.59 305.057 29.2287 305.388 28.9702C305.723 28.7083 306.088 28.526 306.482 28.4233C306.88 28.3172 307.271 28.2642 307.655 28.2642C307.901 28.2642 308.182 28.294 308.501 28.3537C308.822 28.41 309.132 28.5277 309.43 28.7067C309.732 28.8857 309.982 29.1558 310.181 29.517C310.38 29.8783 310.479 30.3622 310.479 30.9688V36H309.306V34.9659H309.246C309.167 35.1316 309.034 35.3089 308.849 35.4979C308.663 35.6868 308.416 35.8475 308.108 35.9801C307.8 36.1127 307.423 36.179 306.979 36.179ZM307.158 35.125C307.622 35.125 308.013 35.0339 308.331 34.8516C308.653 34.6693 308.895 34.4339 309.057 34.1456C309.223 33.8572 309.306 33.554 309.306 33.2358V32.1619C309.256 32.2216 309.147 32.2763 308.978 32.326C308.812 32.3724 308.62 32.4138 308.401 32.4503C308.186 32.4834 307.975 32.5133 307.77 32.5398C307.568 32.563 307.403 32.5829 307.278 32.5994C306.973 32.6392 306.688 32.7038 306.422 32.7933C306.161 32.8795 305.948 33.0104 305.786 33.1861C305.627 33.3584 305.547 33.5937 305.547 33.892C305.547 34.2997 305.698 34.608 306 34.8168C306.305 35.0223 306.691 35.125 307.158 35.125ZM312.621 36V28.3636H313.754V29.5568H313.854C314.013 29.1491 314.27 28.8326 314.624 28.6072C314.979 28.3786 315.405 28.2642 315.902 28.2642C316.406 28.2642 316.825 28.3786 317.16 28.6072C317.498 28.8326 317.761 29.1491 317.95 29.5568H318.03C318.225 29.1624 318.519 28.8492 318.91 28.6172C319.301 28.3819 319.77 28.2642 320.317 28.2642C321 28.2642 321.558 28.478 321.992 28.9055C322.426 29.3298 322.643 29.991 322.643 30.8892V36H321.47V30.8892C321.47 30.3258 321.316 29.9231 321.008 29.6811C320.7 29.4392 320.337 29.3182 319.919 29.3182C319.382 29.3182 318.966 29.4806 318.671 29.8054C318.376 30.1269 318.229 30.5346 318.229 31.0284V36H317.036V30.7699C317.036 30.3357 316.895 29.986 316.613 29.7209C316.331 29.4524 315.968 29.3182 315.524 29.3182C315.219 29.3182 314.934 29.3994 314.669 29.5618C314.407 29.7242 314.195 29.9496 314.033 30.2379C313.874 30.523 313.794 30.8527 313.794 31.2273V36H312.621Z" fill="#666666"/>
</g>
<defs>
<filter id="filter0_d_2257_127" x="0" y="0" width="221" height="156" filterUnits="userSpaceOnUse" color-interpolation-filters="sRGB">
<feFlood flood-opacity="0" result="BackgroundImageFix"/>
<feColorMatrix in="SourceAlpha" type="matrix" values="0 0 0 0 0 0 0 0 0 0 0 0 0 0 0 0 0 0 127 0" result="hardAlpha"/>
<feOffset dy="4"/>
<feGaussianBlur stdDeviation="5"/>
<feComposite in2="hardAlpha" operator="out"/>
<feColorMatrix type="matrix" values="0 0 0 0 0 0 0 0 0 0 0 0 0 0 0 0 0 0 0.04 0"/>
<feBlend mode="normal" in2="BackgroundImageFix" result="effect1_dropShadow_2257_127"/>
<feBlend mode="normal" in="SourceGraphic" in2="effect1_dropShadow_2257_127" result="shape"/>
</filter>
<filter id="filter1_d_2257_127" x="208" y="0" width="244" height="155" filterUnits="userSpaceOnUse" color-interpolation-filters="sRGB">
<feFlood flood-opacity="0" result="BackgroundImageFix"/>
<feColorMatrix in="SourceAlpha" type="matrix" values="0 0 0 0 0 0 0 0 0 0 0 0 0 0 0 0 0 0 127 0" result="hardAlpha"/>
<feOffset dy="4"/>
<feGaussianBlur stdDeviation="5"/>
<feComposite in2="hardAlpha" operator="out"/>
<feColorMatrix type="matrix" values="0 0 0 0 0 0 0 0 0 0 0 0 0 0 0 0 0 0 0.04 0"/>
<feBlend mode="normal" in2="BackgroundImageFix" result="effect1_dropShadow_2257_127"/>
<feBlend mode="normal" in="SourceGraphic" in2="effect1_dropShadow_2257_127" result="shape"/>
</filter>
</defs>
</svg>
